G04 DipTrace 3.0.0.1*
G04 BoardOutline.gbr*
%MOIN*%
G04 #@! TF.FileFunction,Profile*
G04 #@! TF.Part,Single*
%ADD11C,0.005512*%
%FSLAX26Y26*%
G04*
G70*
G90*
G75*
G01*
G04 BoardOutline*
%LPD*%
X4305619Y2677406D2*
D11*
G03X4226879Y2756146I-78737J3D01*
G01*
X468710Y2756392D1*
X472622Y2756146D2*
G03X393882Y2677406I-1J-78740D01*
G01*
Y1022878D2*
G03X472622Y944138I78742J1D01*
G01*
X485147Y1956197D2*
X724959Y1956392D1*
X722894Y1956197D2*
G03X762461Y1993892I-180J39802D01*
G01*
X762264Y1995567D2*
Y2017220D1*
G03X722894Y2056591I-39371J-1D01*
G01*
X724959Y2056391D2*
X485147Y2056591D1*
X1039921Y1956197D2*
G02X999959Y1993892I488J40548D01*
G01*
X1000551Y1995567D2*
Y2017220D1*
G02X1039921Y2056591I39369J1D01*
G01*
X1037461Y2056391D2*
X1193415Y2056591D1*
Y1956197D2*
X1037461Y1956392D1*
X3216399Y1956197D2*
X3456210Y1956392D1*
X3454146Y1956197D2*
G03X3493710Y1993892I-178J39797D01*
G01*
Y1987642D2*
Y2018894D1*
X3493516Y2017220D2*
G03X3454146Y2056591I-39369J1D01*
G01*
X3460395D2*
X3203899D1*
X3771173Y1956197D2*
G02X3731803Y1995567I-2J39369D01*
G01*
Y2017220D1*
G02X3771173Y2056591I39366J4D01*
G01*
X3764923D2*
X3937167D1*
Y1956197D2*
X3764923D1*
X393882Y2677406D2*
X393709Y2130913D1*
G03X472449Y2056394I74611J-23D01*
G01*
X462459Y2056392D2*
X487462Y2056394D1*
X393882Y1022878D2*
X393709Y1887642D1*
X393701Y1881713D2*
G02X472441Y1956394I74771J15D01*
G01*
X462461Y1956392D2*
X487462Y1956394D1*
X1193710Y2056394D2*
X3218710D1*
X1193710Y1956394D2*
X3218710D1*
X3924962Y2056394D2*
X4227395D1*
G03X4306135Y2135055I1J78739D01*
G01*
X4305619Y2677406D1*
X3924962Y1956394D2*
X4227423D1*
G02X4306163Y1875413I1J-78770D01*
G01*
X4305667Y1025118D1*
G02X4226927Y944138I-78741J-2209D01*
G01*
X468710Y943892D1*
M02*
