G04 DipTrace 3.0.0.1*
G04 BottomSilk.gbr*
%MOIN*%
G04 #@! TF.FileFunction,Legend,Bot*
G04 #@! TF.Part,Single*
%ADD10C,0.009843*%
%ADD21C,0.004*%
%ADD23C,0.006*%
%ADD25C,0.002*%
%ADD27C,0.01*%
%ADD116C,0.00772*%
%FSLAX26Y26*%
G04*
G70*
G90*
G75*
G01*
G04 BotSilk*
%LPD*%
X2912901Y1687642D2*
D21*
G02X2912901Y1687642I43309J0D01*
G01*
X2871560Y1656154D2*
D27*
Y1772280D1*
X2908965D1*
X3003454D2*
X3040860D1*
Y1656154D1*
X2918804Y1603004D2*
X2993616D1*
X2975887Y1652209D2*
D21*
X2920772Y1707319D1*
X2989680Y1665980D2*
X2934565Y1721114D1*
X3421065Y1092118D2*
D23*
G02X3421065Y1092118I69993J0D01*
G01*
X3481043D2*
G02X3481043Y1092118I10015J0D01*
G01*
X3361049Y1062118D2*
X3371064D1*
X3361049D2*
Y1122118D1*
X3371064D2*
X3361049D1*
X3621066D2*
X3611051D1*
X3621066D2*
Y1062118D1*
X3611051D2*
X3621066D1*
X3541058Y1212118D2*
D25*
Y1202110D1*
X3441057D2*
X3541058D1*
X3441057D2*
Y1212118D1*
X3446046Y982126D2*
X3541058D1*
X3446046D2*
Y972118D1*
X3541058Y982126D2*
Y972118D1*
X3576055D2*
D23*
X3541058D1*
X3406061Y1212118D2*
X3441057D1*
X3541058D1*
X3576055D1*
X3541058Y972118D2*
X3446046D1*
X3406061D1*
X3371064Y1062118D2*
Y1052110D1*
Y1122118D2*
Y1132126D1*
X3611051Y1062118D2*
Y1052110D1*
Y1122118D2*
Y1132126D1*
X3021107Y1092118D2*
G02X3021107Y1092118I69993J0D01*
G01*
X3081085D2*
G02X3081085Y1092118I10015J0D01*
G01*
X2961091Y1062118D2*
X2971106D1*
X2961091D2*
Y1122118D1*
X2971106D2*
X2961091D1*
X3221108D2*
X3211093D1*
X3221108D2*
Y1062118D1*
X3211093D2*
X3221108D1*
X3141100Y1212118D2*
D25*
Y1202110D1*
X3041099D2*
X3141100D1*
X3041099D2*
Y1212118D1*
X3046088Y982126D2*
X3141100D1*
X3046088D2*
Y972118D1*
X3141100Y982126D2*
Y972118D1*
X3176097D2*
D23*
X3141100D1*
X3006103Y1212118D2*
X3041099D1*
X3141100D1*
X3176097D1*
X3141100Y972118D2*
X3046088D1*
X3006103D1*
X2971106Y1062118D2*
Y1052110D1*
Y1122118D2*
Y1132126D1*
X3211093Y1062118D2*
Y1052110D1*
Y1122118D2*
Y1132126D1*
X2101487Y1828586D2*
D10*
X2510933D1*
X2101487Y1576619D2*
X2510933D1*
Y1828586D2*
Y1576619D1*
X2101487Y1828586D2*
Y1734109D1*
Y1671095D2*
Y1576619D1*
Y1734109D2*
G02X2101487Y1671095I-21J-31507D01*
G01*
X2292261Y1243608D2*
D116*
X2294638Y1248361D1*
X2299446Y1253169D1*
X2304199Y1255546D1*
X2313761D1*
X2318569Y1253169D1*
X2323322Y1248361D1*
X2325754Y1243608D1*
X2328131Y1236423D1*
Y1224429D1*
X2325754Y1217299D1*
X2323322Y1212491D1*
X2318569Y1207738D1*
X2313761Y1205306D1*
X2304199D1*
X2299446Y1207738D1*
X2294638Y1212491D1*
X2292261Y1217299D1*
X2267260Y1205306D2*
X2243328Y1255491D1*
X2276822D1*
X3319093Y1865422D2*
X3314340Y1867798D1*
X3309532Y1872607D1*
X3307155Y1877360D1*
Y1886922D1*
X3309532Y1891730D1*
X3314340Y1896483D1*
X3319093Y1898915D1*
X3326278Y1901292D1*
X3338272D1*
X3345401Y1898915D1*
X3350210Y1896483D1*
X3354963Y1891730D1*
X3357395Y1886922D1*
Y1877360D1*
X3354963Y1872607D1*
X3350210Y1867798D1*
X3345401Y1865422D1*
X3323902Y1818866D2*
X3331087Y1821298D1*
X3335895Y1826051D1*
X3338272Y1833236D1*
Y1835613D1*
X3335895Y1842798D1*
X3331087Y1847551D1*
X3323902Y1849983D1*
X3321525D1*
X3314340Y1847551D1*
X3309587Y1842798D1*
X3307210Y1835613D1*
Y1833236D1*
X3309587Y1826051D1*
X3314340Y1821298D1*
X3323902Y1818866D1*
X3335895D1*
X3347833Y1821298D1*
X3355018Y1826051D1*
X3357395Y1833236D1*
Y1837989D1*
X3355018Y1845174D1*
X3350210Y1847551D1*
X2581671Y1867828D2*
X2576917Y1870204D1*
X2572109Y1875013D1*
X2569732Y1879766D1*
Y1889328D1*
X2572109Y1894136D1*
X2576917Y1898889D1*
X2581671Y1901321D1*
X2588856Y1903698D1*
X2600849D1*
X2607979Y1901321D1*
X2612787Y1898889D1*
X2617540Y1894136D1*
X2619972Y1889328D1*
Y1879766D1*
X2617540Y1875013D1*
X2612787Y1870204D1*
X2607979Y1867828D1*
X2579349Y1852389D2*
X2576917Y1847580D1*
X2569788Y1840395D1*
X2619972D1*
X2569788Y1810586D2*
X2572164Y1817771D1*
X2579349Y1822579D1*
X2591287Y1824956D1*
X2598473D1*
X2610411Y1822579D1*
X2617596Y1817771D1*
X2619972Y1810586D1*
Y1805833D1*
X2617596Y1798648D1*
X2610411Y1793894D1*
X2598472Y1791463D1*
X2591287D1*
X2579349Y1793894D1*
X2572164Y1798648D1*
X2569788Y1805833D1*
Y1810586D1*
X2579349Y1793894D2*
X2610411Y1822579D1*
X3807243Y1743878D2*
X3809620Y1748631D1*
X3814428Y1753440D1*
X3819181Y1755816D1*
X3828743D1*
X3833551Y1753440D1*
X3838305Y1748631D1*
X3840737Y1743878D1*
X3843113Y1736693D1*
Y1724700D1*
X3840737Y1717570D1*
X3838305Y1712761D1*
X3833551Y1708008D1*
X3828743Y1705576D1*
X3819181D1*
X3814428Y1708008D1*
X3809620Y1712761D1*
X3807243Y1717570D1*
X3791804Y1746199D2*
X3786995Y1748631D1*
X3779810Y1755761D1*
Y1705576D1*
X3764371Y1746199D2*
X3759563Y1748631D1*
X3752378Y1755761D1*
Y1705576D1*
X3845019Y1992854D2*
Y1942614D1*
X3793710Y1980916D2*
X3796087Y1985669D1*
X3800895Y1990478D1*
X3805648Y1992854D1*
X3815210D1*
X3820018Y1990478D1*
X3824771Y1985669D1*
X3827203Y1980916D1*
X3829580Y1973731D1*
Y1961738D1*
X3827203Y1954608D1*
X3824771Y1949799D1*
X3820018Y1945046D1*
X3815210Y1942614D1*
X3805648D1*
X3800895Y1945046D1*
X3796087Y1949799D1*
X3793710Y1954608D1*
X3754339Y1942614D2*
Y1992799D1*
X3778271Y1959361D1*
X3742401D1*
X3443218Y1917572D2*
Y1896073D1*
X3440786Y1888888D1*
X3438409Y1886456D1*
X3433656Y1884079D1*
X3428848D1*
X3424095Y1886456D1*
X3421663Y1888888D1*
X3419286Y1896073D1*
Y1917572D1*
X3469526D1*
X3443218Y1900826D2*
X3469526Y1884079D1*
X3428903Y1868640D2*
X3426471Y1863831D1*
X3419341Y1856646D1*
X3469526D1*
X3431280Y1838775D2*
X3428903D1*
X3424095Y1836399D1*
X3421718Y1834022D1*
X3419341Y1829214D1*
Y1819652D1*
X3421718Y1814899D1*
X3424095Y1812522D1*
X3428903Y1810090D1*
X3433656D1*
X3438465Y1812522D1*
X3445594Y1817275D1*
X3469526Y1841207D1*
Y1807714D1*
X3011139Y1855043D2*
X2989639D1*
X2982454Y1857475D1*
X2980023Y1859852D1*
X2977646Y1864605D1*
Y1869413D1*
X2980023Y1874167D1*
X2982454Y1876598D1*
X2989639Y1878975D1*
X3011139D1*
Y1828735D1*
X2994393Y1855043D2*
X2977646Y1828735D1*
X2962207Y1869358D2*
X2957398Y1871790D1*
X2950213Y1878920D1*
Y1828735D1*
X2929966Y1878920D2*
X2903713D1*
X2918027Y1859797D1*
X2910842D1*
X2906089Y1857420D1*
X2903713Y1855043D1*
X2901281Y1847858D1*
Y1843105D1*
X2903713Y1835920D1*
X2908466Y1831112D1*
X2915651Y1828735D1*
X2922836D1*
X2929966Y1831112D1*
X2932342Y1833543D1*
X2934774Y1838297D1*
X3443575Y1749776D2*
Y1728277D1*
X3441143Y1721092D1*
X3438766Y1718660D1*
X3434013Y1716283D1*
X3429205D1*
X3424452Y1718660D1*
X3422020Y1721092D1*
X3419643Y1728277D1*
Y1749776D1*
X3469883D1*
X3443575Y1733030D2*
X3469883Y1716283D1*
X3429260Y1700844D2*
X3426828Y1696035D1*
X3419698Y1688850D1*
X3469883D1*
Y1649479D2*
X3419698Y1649480D1*
X3453136Y1673411D1*
Y1637541D1*
X3331087Y1742150D2*
Y1720650D1*
X3328655Y1713465D1*
X3326278Y1711033D1*
X3321525Y1708657D1*
X3316717D1*
X3311963Y1711033D1*
X3309532Y1713465D1*
X3307155Y1720650D1*
Y1742150D1*
X3357395D1*
X3331087Y1725403D2*
X3357395Y1708656D1*
X3316772Y1693217D2*
X3314340Y1688409D1*
X3307210Y1681224D1*
X3357395D1*
X3307210Y1637100D2*
Y1660976D1*
X3328710Y1663353D1*
X3326333Y1660976D1*
X3323902Y1653791D1*
Y1646661D1*
X3326333Y1639476D1*
X3331087Y1634668D1*
X3338272Y1632291D1*
X3343025D1*
X3350210Y1634668D1*
X3355018Y1639476D1*
X3357395Y1646661D1*
Y1653791D1*
X3355018Y1660976D1*
X3352586Y1663353D1*
X3347833Y1665785D1*
X3522881Y1631572D2*
X3501382D1*
X3494196Y1634004D1*
X3491765Y1636381D1*
X3489388Y1641134D1*
Y1645942D1*
X3491765Y1650695D1*
X3494196Y1653127D1*
X3501382Y1655504D1*
X3522881D1*
Y1605264D1*
X3506135Y1631572D2*
X3489388Y1605264D1*
X3473949Y1645887D2*
X3469140Y1648319D1*
X3461955Y1655449D1*
Y1605264D1*
X3417831Y1648319D2*
X3420208Y1653072D1*
X3427393Y1655449D1*
X3432146D1*
X3439331Y1653072D1*
X3444139Y1645887D1*
X3446516Y1633949D1*
Y1622011D1*
X3444139Y1612449D1*
X3439331Y1607641D1*
X3432146Y1605264D1*
X3429769D1*
X3422640Y1607641D1*
X3417831Y1612449D1*
X3415455Y1619634D1*
Y1622011D1*
X3417831Y1629196D1*
X3422640Y1633949D1*
X3429769Y1636325D1*
X3432146D1*
X3439331Y1633949D1*
X3444139Y1629196D1*
X3446516Y1622011D1*
X3111139Y1600635D2*
X3089639D1*
X3082454Y1603067D1*
X3080023Y1605444D1*
X3077646Y1610197D1*
Y1615005D1*
X3080023Y1619758D1*
X3082454Y1622190D1*
X3089639Y1624567D1*
X3111139D1*
Y1574327D1*
X3094393Y1600635D2*
X3077646Y1574327D1*
X3062207Y1614950D2*
X3057398Y1617382D1*
X3050213Y1624512D1*
Y1574327D1*
X3025212D2*
X3001281Y1624512D1*
X3034774D1*
X2936112Y1600635D2*
X2914612D1*
X2907427Y1603067D1*
X2904995Y1605444D1*
X2902618Y1610197D1*
Y1615005D1*
X2904995Y1619758D1*
X2907427Y1622190D1*
X2914612Y1624567D1*
X2936112D1*
Y1574327D1*
X2919365Y1600635D2*
X2902618Y1574327D1*
X2887179Y1614950D2*
X2882371Y1617382D1*
X2875186Y1624512D1*
Y1574327D1*
X2847808Y1624512D2*
X2854938Y1622135D1*
X2857370Y1617382D1*
Y1612573D1*
X2854938Y1607820D1*
X2850185Y1605388D1*
X2840623Y1603012D1*
X2833438Y1600635D1*
X2828685Y1595827D1*
X2826308Y1591074D1*
Y1583889D1*
X2828685Y1579135D1*
X2831061Y1576703D1*
X2838247Y1574327D1*
X2847808D1*
X2854938Y1576703D1*
X2857370Y1579135D1*
X2859746Y1583889D1*
Y1591074D1*
X2857370Y1595827D1*
X2852561Y1600635D1*
X2845432Y1603012D1*
X2835870Y1605388D1*
X2831061Y1607820D1*
X2828685Y1612573D1*
Y1617382D1*
X2831061Y1622135D1*
X2838247Y1624512D1*
X2847808D1*
X3488027Y1278156D2*
X3492781Y1282965D1*
X3499966Y1285341D1*
X3509527D1*
X3516712Y1282965D1*
X3521521Y1278156D1*
Y1273403D1*
X3519089Y1268595D1*
X3516712Y1266218D1*
X3511959Y1263841D1*
X3497589Y1259033D1*
X3492781Y1256656D1*
X3490404Y1254224D1*
X3488027Y1249471D1*
Y1242286D1*
X3492781Y1237533D1*
X3499966Y1235101D1*
X3509527D1*
X3516712Y1237533D1*
X3521521Y1242286D1*
X3472588Y1275724D2*
X3467780Y1278156D1*
X3460595Y1285286D1*
Y1235101D1*
X3098819Y1278156D2*
X3103573Y1282965D1*
X3110758Y1285341D1*
X3120319D1*
X3127504Y1282965D1*
X3132313Y1278156D1*
Y1273403D1*
X3129881Y1268595D1*
X3127504Y1266218D1*
X3122751Y1263841D1*
X3108381Y1259033D1*
X3103573Y1256656D1*
X3101196Y1254224D1*
X3098819Y1249471D1*
Y1242286D1*
X3103573Y1237533D1*
X3110758Y1235101D1*
X3120319D1*
X3127504Y1237533D1*
X3132313Y1242286D1*
X3080948Y1273348D2*
Y1275724D1*
X3078572Y1280533D1*
X3076195Y1282909D1*
X3071387Y1285286D1*
X3061825D1*
X3057072Y1282909D1*
X3054695Y1280533D1*
X3052263Y1275724D1*
Y1270971D1*
X3054695Y1266163D1*
X3059448Y1259033D1*
X3083380Y1235101D1*
X3049887D1*
X2995560Y1998761D2*
Y1948521D1*
X3012307Y1998761D2*
X2978813D1*
X2963374Y1989144D2*
X2958566Y1991576D1*
X2951381Y1998706D1*
Y1948521D1*
X2912010D2*
Y1998706D1*
X2935941Y1965268D1*
X2900071D1*
X2347423Y2000235D2*
Y1964365D1*
X2345046Y1957180D1*
X2340238Y1952427D1*
X2333053Y1949995D1*
X2328300D1*
X2321115Y1952427D1*
X2316306Y1957180D1*
X2313930Y1964365D1*
Y2000235D1*
X2296058Y1988241D2*
Y1990618D1*
X2293682Y1995426D1*
X2291305Y1997803D1*
X2286497Y2000180D1*
X2276935D1*
X2272182Y1997803D1*
X2269805Y1995426D1*
X2267374Y1990618D1*
Y1985865D1*
X2269805Y1981056D1*
X2274559Y1973927D1*
X2298490Y1949995D1*
X2264997D1*
M02*
