G04 DipTrace 3.0.0.1*
G04 BottomAssy.gbr*
%MOIN*%
G04 #@! TF.FileFunction,Drawing,Bot*
G04 #@! TF.Part,Single*
%AMOUTLINE0*5,1,8,0,0,0.063001,67.499118*%
%AMOUTLINE3*5,1,8,0,0,0.048001,-22.501296*%
%AMOUTLINE6*
4,1,20,
-0.023979,-0.024,
-0.032189,-0.02256,
-0.039411,-0.018399,
-0.044774,-0.012018,
-0.047631,-0.004188,
-0.047639,0.004147,
-0.044795,0.011982,
-0.039444,0.018371,
-0.032228,0.022546,
-0.024021,0.024,
0.023979,0.024,
0.032189,0.02256,
0.039411,0.018399,
0.044774,0.012018,
0.047631,0.004188,
0.047639,-0.004147,
0.044795,-0.011982,
0.039444,-0.018371,
0.032228,-0.022546,
0.024021,-0.024,
-0.023979,-0.024,
0*%
%AMOUTLINE9*5,1,8,0,0,0.06,67.500441*%
%AMOUTLINE12*
4,1,20,
-0.03,0.029974,
-0.028199,0.040236,
-0.022999,0.049264,
-0.015022,0.055967,
-0.005235,0.059539,
0.005184,0.059549,
0.014978,0.055993,
0.022965,0.049303,
0.028182,0.040285,
0.03,0.030026,
0.03,-0.029974,
0.028199,-0.040236,
0.022999,-0.049264,
0.015022,-0.055967,
0.005235,-0.059539,
-0.005184,-0.059549,
-0.014978,-0.055993,
-0.022965,-0.049303,
-0.028182,-0.040285,
-0.03,-0.030026,
-0.03,0.029974,
0*%
%AMOUTLINE15*
4,1,20,
-0.029974,-0.03,
-0.040236,-0.028199,
-0.049264,-0.022999,
-0.055967,-0.015022,
-0.059539,-0.005235,
-0.059549,0.005184,
-0.055993,0.014978,
-0.049303,0.022965,
-0.040285,0.028182,
-0.030026,0.03,
0.029974,0.03,
0.040236,0.028199,
0.049264,0.022999,
0.055967,0.015022,
0.059539,0.005235,
0.059549,-0.005184,
0.055993,-0.014978,
0.049303,-0.022965,
0.040285,-0.028182,
0.030026,-0.03,
-0.029974,-0.03,
0*%
%AMOUTLINE18*
4,1,20,
-0.035219,-0.035249,
-0.047277,-0.033135,
-0.057885,-0.027022,
-0.065762,-0.017652,
-0.069959,-0.006151,
-0.06997,0.006091,
-0.065793,0.017598,
-0.057932,0.026983,
-0.047335,0.033114,
-0.035281,0.035249,
0.035219,0.035249,
0.047277,0.033135,
0.057885,0.027022,
0.065762,0.017652,
0.069959,0.006151,
0.06997,-0.006091,
0.065793,-0.017598,
0.057932,-0.026983,
0.047335,-0.033114,
0.035281,-0.035249,
-0.035219,-0.035249,
0*%
%ADD21C,0.004*%
%ADD23C,0.006*%
%ADD25C,0.002*%
%ADD27C,0.01*%
%ADD31C,0.008*%
G04 #@! TA.AperFunction,ComponentPad*
%ADD24C,0.063*%
%ADD26R,0.051181X0.059055*%
%ADD28R,0.059055X0.051181*%
G04 #@! TA.AperFunction,ComponentPad*
%ADD30C,0.066*%
%ADD37R,0.086614X0.023622*%
G04 #@! TA.AperFunction,ComponentPad*
%ADD38R,0.042392X0.042461*%
%ADD41C,0.037205*%
%ADD42R,0.07874X0.07874*%
%ADD43R,0.051181X0.062992*%
%ADD44R,0.062992X0.051181*%
%ADD45R,0.051181X0.07874*%
%ADD49R,0.055118X0.03937*%
G04 #@! TA.AperFunction,ComponentPad*
%ADD50C,0.074*%
%ADD51R,0.023622X0.07874*%
G04 #@! TA.AperFunction,ComponentPad*
%ADD118OUTLINE0*%
%ADD121OUTLINE3*%
%ADD124OUTLINE6*%
%ADD127OUTLINE9*%
%ADD130OUTLINE12*%
%ADD133OUTLINE15*%
%ADD136OUTLINE18*%
%FSLAX26Y26*%
G04*
G70*
G90*
G75*
G01*
G04 BotAssy*
%LPD*%
D24*
X2574959Y1656392D3*
D118*
Y1796392D3*
D121*
X3577324Y1543252D3*
X3677324D3*
G36*
X2299152Y1190939D2*
X2328732D1*
Y1133871D1*
X2299152D1*
Y1190939D1*
G37*
G36*
X2242153D2*
X2271732D1*
Y1133871D1*
X2242153D1*
Y1190939D1*
G37*
X2300737Y1188354D2*
D21*
X2270722D1*
X2299743Y1136386D2*
X2270722D1*
D26*
X2319194Y1162370D3*
X2252265D3*
G36*
X3447547Y1873486D2*
X3390502D1*
Y1903096D1*
X3447547D1*
Y1873486D1*
G37*
G36*
Y1816486D2*
X3390502D1*
Y1846097D1*
X3447547D1*
Y1816486D1*
G37*
X3393095Y1875086D2*
D21*
Y1845072D1*
X3445062Y1874092D2*
Y1845072D1*
D28*
X3419079Y1893543D3*
Y1826614D3*
G36*
X2653087Y1861003D2*
X2710155D1*
Y1890582D1*
X2653087D1*
Y1861003D1*
G37*
G36*
Y1804003D2*
X2710155D1*
Y1833583D1*
X2653087D1*
Y1804003D1*
G37*
X2655672Y1862587D2*
D21*
Y1832573D1*
X2707640Y1861593D2*
Y1832573D1*
D28*
X2681656Y1881045D3*
Y1814115D3*
G36*
X3811168Y1615416D2*
X3840747D1*
Y1672485D1*
X3811168D1*
Y1615416D1*
G37*
G36*
X3754169D2*
X3783748D1*
Y1672485D1*
X3754169D1*
Y1615416D1*
G37*
X3812753Y1669876D2*
D21*
X3782738D1*
X3811758Y1617909D2*
X3782738D1*
D26*
X3831210Y1643892D3*
X3764281D3*
D30*
X3272962Y1403276D3*
X2872962D3*
D124*
X924966Y1031390D3*
Y1131390D3*
Y1231390D3*
Y1331390D3*
Y1431390D3*
Y1531390D3*
Y1631390D3*
Y1731390D3*
X624966D3*
Y1631390D3*
Y1531390D3*
Y1431390D3*
Y1331390D3*
Y1231390D3*
Y1131390D3*
Y1031390D3*
G36*
X3915723Y1890453D2*
X3872459D1*
Y1909804D1*
X3915723D1*
Y1890453D1*
G37*
G36*
Y1840450D2*
X3872459D1*
Y1859801D1*
X3915723D1*
Y1840450D1*
G37*
G36*
Y1790447D2*
X3872459D1*
Y1809798D1*
X3915723D1*
Y1790447D1*
G37*
G36*
Y1740444D2*
X3872459D1*
Y1759814D1*
X3915723D1*
Y1740444D1*
G37*
G36*
X3714961D2*
X3671668D1*
Y1759814D1*
X3714961D1*
Y1740444D1*
G37*
G36*
Y1790447D2*
X3671668D1*
Y1809798D1*
X3714961D1*
Y1790447D1*
G37*
G36*
Y1840450D2*
X3671668D1*
Y1859801D1*
X3714961D1*
Y1840450D1*
G37*
G36*
Y1890453D2*
X3671668D1*
Y1909804D1*
X3714961D1*
Y1890453D1*
G37*
X3718894Y1730655D2*
D31*
X3848831D1*
X3868526D1*
Y1919631D1*
X3848831D1*
X3718894D1*
Y1730655D1*
X3848831D2*
Y1919631D1*
D37*
X3896072Y1900143D3*
Y1850143D3*
Y1800143D3*
Y1750143D3*
X3691348D3*
Y1800143D3*
Y1850143D3*
Y1900143D3*
D38*
X2681210Y1100139D3*
D127*
X2581210D3*
X2681210Y1200139D3*
X2581210D3*
X2681210Y1300139D3*
X2581210D3*
D130*
X543710Y2675142D3*
X643710D3*
X743710D3*
X843710D3*
X943710D3*
X1043710D3*
X1143710D3*
X1243710D3*
X1343710D3*
X1443710D3*
X1543710D3*
X1643710D3*
X1743710D3*
X1843710D3*
X1943710D3*
X2043710D3*
X543710Y1875142D3*
X643710D3*
X743710D3*
X843710D3*
X943710D3*
X1043710D3*
X1143710D3*
X1243710D3*
X1343710D3*
X1443710D3*
X1543710D3*
X1643710D3*
X1743710D3*
X1843710D3*
X1943710D3*
X2043710D3*
D41*
X675017Y2219256D3*
X812403D3*
X645690Y2460783D3*
X890450Y2332323D3*
X841730Y2460783D3*
X779084Y2493661D3*
X708336D3*
X865360Y2266173D3*
X596970Y2332323D3*
X622060Y2266173D3*
X743710Y2202323D3*
X605497Y2402559D3*
X881923D3*
X1225017Y2219256D3*
X1362403D3*
X1195690Y2460783D3*
X1440450Y2332323D3*
X1391730Y2460783D3*
X1329084Y2493661D3*
X1258336D3*
X1415360Y2266173D3*
X1146970Y2332323D3*
X1172060Y2266173D3*
X1293710Y2202323D3*
X1155497Y2402559D3*
X1431923D3*
X1875017Y2219256D3*
X2012403D3*
X1845690Y2460783D3*
X2090450Y2332323D3*
X2041730Y2460783D3*
X1979084Y2493661D3*
X1908336D3*
X2065360Y2266173D3*
X1796970Y2332323D3*
X1822060Y2266173D3*
X1943710Y2202323D3*
X1805497Y2402559D3*
X2081923D3*
X2425017Y2219256D3*
X2562403D3*
X2395690Y2460783D3*
X2640450Y2332323D3*
X2591730Y2460783D3*
X2529084Y2493661D3*
X2458336D3*
X2615360Y2266173D3*
X2346970Y2332323D3*
X2372060Y2266173D3*
X2493710Y2202323D3*
X2355497Y2402559D3*
X2631923D3*
X3075017Y2219256D3*
X3212403D3*
X3045690Y2460783D3*
X3290450Y2332323D3*
X3241730Y2460783D3*
X3179084Y2493661D3*
X3108336D3*
X3265360Y2266173D3*
X2996970Y2332323D3*
X3022060Y2266173D3*
X3143710Y2202323D3*
X3005497Y2402559D3*
X3281923D3*
X3625017Y2219256D3*
X3762403D3*
X3595690Y2460783D3*
X3840450Y2332323D3*
X3791730Y2460783D3*
X3729084Y2493661D3*
X3658336D3*
X3815360Y2266173D3*
X3546970Y2332323D3*
X3572060Y2266173D3*
X3693710Y2202323D3*
X3555497Y2402559D3*
X3831923D3*
D42*
X1263055Y1618572D3*
X1850493Y1612323D3*
G36*
X3559191Y1889581D2*
X3503214D1*
Y1903672D1*
X3559191D1*
Y1889581D1*
G37*
G36*
Y1821583D2*
X3503214D1*
Y1835658D1*
X3559191D1*
Y1821583D1*
G37*
X3506209Y1834648D2*
D23*
Y1890638D1*
X3556211Y1834648D2*
Y1890638D1*
D44*
X3531210Y1900045D3*
Y1825241D3*
X2871560Y1772280D2*
D27*
Y1603004D1*
X3040860D1*
Y1772280D1*
X2871560D1*
D45*
X3027076Y1608902D3*
D42*
X2956210Y1766382D3*
D45*
X2885344Y1608902D3*
G36*
X3559548Y1720597D2*
X3503571D1*
Y1734688D1*
X3559548D1*
Y1720597D1*
G37*
G36*
Y1652599D2*
X3503571D1*
Y1666674D1*
X3559548D1*
Y1652599D1*
G37*
X3506566Y1665664D2*
D23*
Y1721654D1*
X3556568Y1665664D2*
Y1721654D1*
D44*
X3531567Y1731060D3*
Y1656257D3*
G36*
X3391083Y1660235D2*
X3447083D1*
Y1646238D1*
X3391083D1*
Y1660235D1*
G37*
G36*
Y1728250D2*
X3447083D1*
Y1714237D1*
X3391083D1*
Y1728250D1*
G37*
X3444079Y1715215D2*
D23*
Y1659226D1*
X3394078Y1715215D2*
Y1659226D1*
D44*
X3419079Y1649819D3*
Y1724622D3*
G36*
X3496122Y1515592D2*
X3510166D1*
Y1571576D1*
X3496122D1*
Y1515592D1*
G37*
G36*
X3428123D2*
X3442167D1*
Y1571576D1*
X3428123D1*
Y1515592D1*
G37*
X3441173Y1568581D2*
D23*
X3497163D1*
X3441173Y1518579D2*
X3497163D1*
D43*
X3506570Y1543580D3*
X3431766D3*
G36*
X3029209Y1540639D2*
X3015259D1*
Y1484631D1*
X3029209D1*
Y1540639D1*
G37*
G36*
X3097208D2*
X3083257D1*
Y1484631D1*
X3097208D1*
Y1540639D1*
G37*
X3084205Y1487642D2*
D23*
X3028215D1*
X3084205Y1537644D2*
X3028215D1*
D43*
X3018808Y1512643D3*
X3093612D3*
G36*
X2854209Y1540639D2*
X2840259D1*
Y1484631D1*
X2854209D1*
Y1540639D1*
G37*
G36*
X2922208D2*
X2908257D1*
Y1484631D1*
X2922208D1*
Y1540639D1*
G37*
X2909205Y1487642D2*
D23*
X2853215D1*
X2909205Y1537644D2*
X2853215D1*
D43*
X2843808Y1512643D3*
X2918612D3*
X3556062Y1007122D2*
D23*
G02X3556062Y1007122I19993J0D01*
G01*
X3386068Y1012114D2*
G02X3386068Y1012114I19993J0D01*
G01*
Y1177114D2*
G02X3386068Y1177114I19993J0D01*
G01*
X3556062D2*
G02X3556062Y1177114I19993J0D01*
G01*
X3466076Y1092118D2*
D25*
G02X3466076Y1092118I24981J0D01*
G01*
X3371064Y1132126D2*
D23*
Y1192126D1*
X3391057Y1212118D1*
Y972118D2*
X3371064Y992110D1*
Y1052110D1*
X3591059Y1212118D2*
X3611051Y1192126D1*
Y1132126D1*
X3591059Y972118D2*
X3611051Y992110D1*
Y1052110D1*
X3541058Y1142110D2*
D25*
Y1042126D1*
X3441057D2*
X3541058D1*
X3441057D2*
Y1142110D1*
X3541058D2*
X3441057D1*
X3391057Y972118D2*
D23*
X3406061D1*
X3591059D2*
X3576055D1*
X3591059Y1212118D2*
X3576055D1*
X3391057D2*
X3406061D1*
X3541058Y1007110D2*
X3441057D1*
Y1182118D2*
X3541058D1*
X3586070Y1142110D2*
Y1112110D1*
Y1072126D2*
Y1042126D1*
Y1112110D2*
X3576055Y1077118D1*
D133*
X3619058Y1181118D3*
X3363058D3*
X3619058Y1003118D3*
X3363058D3*
X3156104Y1007122D2*
D23*
G02X3156104Y1007122I19993J0D01*
G01*
X2986110Y1012114D2*
G02X2986110Y1012114I19993J0D01*
G01*
Y1177114D2*
G02X2986110Y1177114I19993J0D01*
G01*
X3156104D2*
G02X3156104Y1177114I19993J0D01*
G01*
X3066118Y1092118D2*
D25*
G02X3066118Y1092118I24981J0D01*
G01*
X2971106Y1132126D2*
D23*
Y1192126D1*
X2991099Y1212118D1*
Y972118D2*
X2971106Y992110D1*
Y1052110D1*
X3191101Y1212118D2*
X3211093Y1192126D1*
Y1132126D1*
X3191101Y972118D2*
X3211093Y992110D1*
Y1052110D1*
X3141100Y1142110D2*
D25*
Y1042126D1*
X3041099D2*
X3141100D1*
X3041099D2*
Y1142110D1*
X3141100D2*
X3041099D1*
X2991099Y972118D2*
D23*
X3006103D1*
X3191101D2*
X3176097D1*
X3191101Y1212118D2*
X3176097D1*
X2991099D2*
X3006103D1*
X3141100Y1007110D2*
X3041099D1*
Y1182118D2*
X3141100D1*
X3186112Y1142110D2*
Y1112110D1*
Y1072126D2*
Y1042126D1*
Y1112110D2*
X3176097Y1077118D1*
D133*
X3219100Y1181118D3*
X2963100D3*
X3219100Y1003118D3*
X2963100D3*
G36*
X2984195Y1877460D2*
X3007198D1*
Y1859466D1*
X2984195D1*
Y1877460D1*
G37*
G36*
X2905194Y1914463D2*
X2928197D1*
Y1896458D1*
X2905194D1*
Y1914463D1*
G37*
G36*
Y1840456D2*
X2928197D1*
Y1822462D1*
X2905194D1*
Y1840456D1*
G37*
X2982183Y1924453D2*
D23*
X2930195D1*
Y1812449D1*
X2982183D1*
Y1924453D1*
D49*
X2912882Y1831050D3*
Y1905853D3*
X2999496Y1868451D3*
D50*
X2356690Y1012386D3*
X2256690D3*
X2456690D3*
D51*
X2131210Y1887642D3*
X2181210D3*
X2231210D3*
X2281210D3*
X2331210D3*
X2381210D3*
X2431210D3*
X2481210D3*
Y1517563D3*
X2431210D3*
X2381210D3*
X2331210D3*
X2281210D3*
X2231210D3*
X2181210D3*
X2131210D3*
D136*
X4131504Y1037383D3*
Y1234234D3*
M02*
