G04 DipTrace 3.0.0.1*
G04 BottomMask.gbr*
%MOIN*%
G04 #@! TF.FileFunction,Soldermask,Bot*
G04 #@! TF.Part,Single*
%AMOUTLINE1*5,1,8,0,0,0.071524,67.499223*%
%AMOUTLINE4*5,1,8,0,0,0.056523,-22.5011*%
%AMOUTLINE7*
4,1,20,
-0.024322,-0.027937,
-0.033553,-0.026318,
-0.041978,-0.021464,
-0.048235,-0.01402,
-0.051568,-0.004885,
-0.051577,0.004838,
-0.048259,0.013977,
-0.042016,0.021431,
-0.033599,0.026301,
-0.024367,0.027937,
0.024322,0.027937,
0.033553,0.026318,
0.041978,0.021464,
0.048235,0.01402,
0.051568,0.004885,
0.051577,-0.004838,
0.048259,-0.013977,
0.042016,-0.021431,
0.033599,-0.026301,
0.024367,-0.027937,
-0.024322,-0.027937,
0*%
%AMOUTLINE10*5,1,8,0,0,0.068523,67.500386*%
%AMOUTLINE13*
4,1,20,
-0.033937,0.030317,
-0.031957,0.0416,
-0.026063,0.051831,
-0.017024,0.059428,
-0.005933,0.063476,
0.005874,0.063486,
0.016974,0.059457,
0.026025,0.051876,
0.031938,0.041655,
0.033937,0.030372,
0.033937,-0.030317,
0.031957,-0.0416,
0.026063,-0.051831,
0.017024,-0.059428,
0.005933,-0.063476,
-0.005874,-0.063486,
-0.016974,-0.059457,
-0.026025,-0.051876,
-0.031938,-0.041655,
-0.033937,-0.030372,
-0.033937,0.030317,
0*%
%AMOUTLINE16*
4,1,20,
-0.030317,-0.033937,
-0.0416,-0.031957,
-0.051831,-0.026063,
-0.059428,-0.017024,
-0.063476,-0.005933,
-0.063486,0.005874,
-0.059457,0.016974,
-0.051876,0.026025,
-0.041655,0.031938,
-0.030372,0.033937,
0.030317,0.033937,
0.0416,0.031957,
0.051831,0.026063,
0.059428,0.017024,
0.063476,0.005933,
0.063486,-0.005874,
0.059457,-0.016974,
0.051876,-0.026025,
0.041655,-0.031938,
0.030372,-0.033937,
-0.030317,-0.033937,
0*%
%AMOUTLINE19*
4,1,20,
-0.035562,-0.039186,
-0.048641,-0.036893,
-0.060451,-0.030087,
-0.069223,-0.019654,
-0.073896,-0.006848,
-0.073907,0.006781,
-0.069257,0.019594,
-0.060504,0.030043,
-0.048705,0.03687,
-0.035627,0.039186,
0.035562,0.039186,
0.048641,0.036893,
0.060451,0.030087,
0.069223,0.019654,
0.073896,0.006848,
0.073907,-0.006781,
0.069257,-0.019594,
0.060504,-0.030043,
0.048705,-0.03687,
0.035627,-0.039186,
-0.035562,-0.039186,
0*%
%ADD50C,0.074*%
%ADD59C,0.03937*%
%ADD60C,0.125984*%
%ADD68R,0.031496X0.086614*%
%ADD72R,0.062992X0.047244*%
%ADD80R,0.059055X0.086614*%
%ADD82R,0.070866X0.059055*%
%ADD84R,0.059055X0.070866*%
%ADD86R,0.086614X0.086614*%
%ADD88C,0.045079*%
%ADD92R,0.050266X0.050335*%
%ADD94R,0.094488X0.031496*%
%ADD106C,0.073874*%
%ADD108R,0.066929X0.059055*%
%ADD110R,0.059055X0.066929*%
%ADD112C,0.070874*%
%ADD119OUTLINE1*%
%ADD122OUTLINE4*%
%ADD125OUTLINE7*%
%ADD128OUTLINE10*%
%ADD131OUTLINE13*%
%ADD134OUTLINE16*%
%ADD137OUTLINE19*%
%FSLAX26Y26*%
G04*
G70*
G90*
G75*
G01*
G04 BotMask*
%LPD*%
D112*
X2574959Y1656392D3*
D119*
Y1796392D3*
D122*
X3577324Y1543252D3*
X3677324D3*
D110*
X2319194Y1162370D3*
X2252265D3*
D108*
X3419079Y1893543D3*
Y1826614D3*
X2681656Y1881045D3*
Y1814115D3*
D110*
X3831210Y1643892D3*
X3764281D3*
D106*
X3272962Y1403276D3*
X2872962D3*
D59*
X806112Y2050339D3*
X856308D3*
X906505D3*
X956702D3*
X3537364D3*
X3587560D3*
X3637757D3*
X3687954D3*
X806210Y1962642D3*
X856308Y1962445D3*
X906505D3*
X956702D3*
X3537364Y1962449D3*
X3587560D3*
X3637757D3*
X3687954D3*
D125*
X924966Y1031390D3*
Y1131390D3*
Y1231390D3*
Y1331390D3*
Y1431390D3*
Y1531390D3*
Y1631390D3*
Y1731390D3*
X624966D3*
Y1631390D3*
Y1531390D3*
Y1431390D3*
Y1331390D3*
Y1231390D3*
Y1131390D3*
Y1031390D3*
D94*
X3896072Y1900143D3*
Y1850143D3*
Y1800143D3*
Y1750143D3*
X3691348D3*
Y1800143D3*
Y1850143D3*
Y1900143D3*
D92*
X2681210Y1100139D3*
D128*
X2581210D3*
X2681210Y1200139D3*
X2581210D3*
X2681210Y1300139D3*
X2581210D3*
D131*
X543710Y2675142D3*
X643710D3*
X743710D3*
X843710D3*
X943710D3*
X1043710D3*
X1143710D3*
X1243710D3*
X1343710D3*
X1443710D3*
X1543710D3*
X1643710D3*
X1743710D3*
X1843710D3*
X1943710D3*
X2043710D3*
X543710Y1875142D3*
X643710D3*
X743710D3*
X843710D3*
X943710D3*
X1043710D3*
X1143710D3*
X1243710D3*
X1343710D3*
X1443710D3*
X1543710D3*
X1643710D3*
X1743710D3*
X1843710D3*
X1943710D3*
X2043710D3*
D88*
X675017Y2219256D3*
X812403D3*
X645690Y2460783D3*
X890450Y2332323D3*
X841730Y2460783D3*
X779084Y2493661D3*
X708336D3*
X865360Y2266173D3*
X596970Y2332323D3*
X622060Y2266173D3*
X743710Y2202323D3*
X605497Y2402559D3*
X881923D3*
X1225017Y2219256D3*
X1362403D3*
X1195690Y2460783D3*
X1440450Y2332323D3*
X1391730Y2460783D3*
X1329084Y2493661D3*
X1258336D3*
X1415360Y2266173D3*
X1146970Y2332323D3*
X1172060Y2266173D3*
X1293710Y2202323D3*
X1155497Y2402559D3*
X1431923D3*
X1875017Y2219256D3*
X2012403D3*
X1845690Y2460783D3*
X2090450Y2332323D3*
X2041730Y2460783D3*
X1979084Y2493661D3*
X1908336D3*
X2065360Y2266173D3*
X1796970Y2332323D3*
X1822060Y2266173D3*
X1943710Y2202323D3*
X1805497Y2402559D3*
X2081923D3*
X2425017Y2219256D3*
X2562403D3*
X2395690Y2460783D3*
X2640450Y2332323D3*
X2591730Y2460783D3*
X2529084Y2493661D3*
X2458336D3*
X2615360Y2266173D3*
X2346970Y2332323D3*
X2372060Y2266173D3*
X2493710Y2202323D3*
X2355497Y2402559D3*
X2631923D3*
X3075017Y2219256D3*
X3212403D3*
X3045690Y2460783D3*
X3290450Y2332323D3*
X3241730Y2460783D3*
X3179084Y2493661D3*
X3108336D3*
X3265360Y2266173D3*
X2996970Y2332323D3*
X3022060Y2266173D3*
X3143710Y2202323D3*
X3005497Y2402559D3*
X3281923D3*
X3625017Y2219256D3*
X3762403D3*
X3595690Y2460783D3*
X3840450Y2332323D3*
X3791730Y2460783D3*
X3729084Y2493661D3*
X3658336D3*
X3815360Y2266173D3*
X3546970Y2332323D3*
X3572060Y2266173D3*
X3693710Y2202323D3*
X3555497Y2402559D3*
X3831923D3*
D86*
X1263055Y1618572D3*
X1850493Y1612323D3*
D82*
X3531210Y1900045D3*
Y1825241D3*
D80*
X3027076Y1608902D3*
D86*
X2956210Y1766382D3*
D80*
X2885344Y1608902D3*
D82*
X3531567Y1731060D3*
Y1656257D3*
X3419079Y1649819D3*
Y1724622D3*
D84*
X3506570Y1543580D3*
X3431766D3*
X3018808Y1512643D3*
X3093612D3*
X2843808D3*
X2918612D3*
D134*
X3619058Y1181118D3*
X3363058D3*
X3619058Y1003118D3*
X3363058D3*
X3219100Y1181118D3*
X2963100D3*
X3219100Y1003118D3*
X2963100D3*
D72*
X2912882Y1831050D3*
Y1905853D3*
X2999496Y1868451D3*
D50*
X2356690Y1012386D3*
X2256690D3*
X2456690D3*
D68*
X2131210Y1887642D3*
X2181210D3*
X2231210D3*
X2281210D3*
X2331210D3*
X2381210D3*
X2431210D3*
X2481210D3*
Y1517563D3*
X2431210D3*
X2381210D3*
X2331210D3*
X2281210D3*
X2231210D3*
X2181210D3*
X2131210D3*
D60*
X4118710Y2237642D3*
Y1437642D3*
D137*
X4131504Y1037383D3*
Y1234234D3*
M02*
