G04 DipTrace 3.0.0.1*
G04 BottomPaste.gbr*
%MOIN*%
G04 #@! TF.FileFunction,Paste,Bot*
G04 #@! TF.Part,Single*
%ADD69R,0.015748X0.070866*%
%ADD73R,0.047244X0.031496*%
%ADD81R,0.043307X0.070866*%
%ADD83R,0.055118X0.043307*%
%ADD85R,0.043307X0.055118*%
%ADD87R,0.070866X0.070866*%
%ADD95R,0.07874X0.015748*%
%ADD109R,0.051181X0.043307*%
%ADD111R,0.043307X0.051181*%
%FSLAX26Y26*%
G04*
G70*
G90*
G75*
G01*
G04 BotPaste*
%LPD*%
D111*
X2319194Y1162370D3*
X2252265D3*
D109*
X3419079Y1893543D3*
Y1826614D3*
X2681656Y1881045D3*
Y1814115D3*
D111*
X3831210Y1643892D3*
X3764281D3*
D95*
X3896072Y1900143D3*
Y1850143D3*
Y1800143D3*
Y1750143D3*
X3691348D3*
Y1800143D3*
Y1850143D3*
Y1900143D3*
D87*
X1263055Y1618572D3*
X1850493Y1612323D3*
D83*
X3531210Y1900045D3*
Y1825241D3*
D81*
X3027076Y1608902D3*
D87*
X2956210Y1766382D3*
D81*
X2885344Y1608902D3*
D83*
X3531567Y1731060D3*
Y1656257D3*
X3419079Y1649819D3*
Y1724622D3*
D85*
X3506570Y1543580D3*
X3431766D3*
X3018808Y1512643D3*
X3093612D3*
X2843808D3*
X2918612D3*
D73*
X2912882Y1831050D3*
Y1905853D3*
X2999496Y1868451D3*
D69*
X2131210Y1887642D3*
X2181210D3*
X2231210D3*
X2281210D3*
X2331210D3*
X2381210D3*
X2431210D3*
X2481210D3*
Y1517563D3*
X2431210D3*
X2381210D3*
X2331210D3*
X2281210D3*
X2231210D3*
X2181210D3*
X2131210D3*
M02*
