M48
INCH
T01C0.0118
T02C0.0191
T03C0.0197
T04C0.0248
T05C0.0315
T06C0.032
T07C0.0394
T08C0.04
T09C0.044
T10C0.047
T11C0.126
%
T01
X+014890Y+025786
X+011476Y+025284
X+010473Y+024983
X+007875Y+017751
X+010437Y+016064
X+013937Y+017751
X+013343Y+012220
X+013875Y+011845
X+014562Y+012220
X+015812Y+012220
X+017062Y+012220
X+017500Y+013189
X+018312Y+012220
X+018812Y+013939
X+019437Y+015439
X+020125Y+015126
X+020562Y+015126
X+020875Y+015376
X+020812Y+013689
X+021750Y+012939
X+022000Y+012689
X+022125Y+014189
X+023468Y+013689
X+024125Y+013751
X+025562Y+013876
X+025812Y+014501
X+025250Y+012439
X+023754Y+010874
X+022817Y+010811
X+020630Y+011936
X+020255Y+011686
X+019875Y+011314
X+013031Y+011564
X+011875Y+011876
X+011687Y+012314
X+023817Y+018123
X+023373Y+025033
X+024528Y+025334
X+020863Y+024581
X+019659Y+025535
X+029497Y+025485
X+031625Y+018439
X+032312Y+018314
X+033187Y+015814
X+035937Y+016126
X+035941Y+016998
X+037125Y+016689
X+038187Y+017533
X+038187Y+018064
X+038062Y+018939
X+038815Y+012311
X+030629Y+013061
X+030750Y+014189
X+029000Y+012689
T02
X+022812Y+016626
T03
X+022062Y+017189
X+022468Y+012345
X+035503Y+013436
T04
X+006750Y+022193
X+007437Y+022023
X+008124Y+022193
X+008654Y+022662
X+008905Y+023323
X+008819Y+024026
X+008417Y+024608
X+007791Y+024937
X+007083Y+024937
X+006457Y+024608
X+006055Y+024026
X+005970Y+023323
X+006221Y+022662
X+011470Y+023323
X+011721Y+022662
X+012250Y+022193
X+012937Y+022023
X+013624Y+022193
X+014154Y+022662
X+014405Y+023323
X+014319Y+024026
X+013917Y+024608
X+013291Y+024937
X+012583Y+024937
X+011957Y+024608
X+011555Y+024026
X+017970Y+023323
X+018221Y+022662
X+018750Y+022193
X+019437Y+022023
X+020124Y+022193
X+020654Y+022662
X+020905Y+023323
X+020819Y+024026
X+020417Y+024608
X+019791Y+024937
X+019083Y+024937
X+018457Y+024608
X+018055Y+024026
X+023470Y+023323
X+023721Y+022662
X+024250Y+022193
X+024937Y+022023
X+025624Y+022193
X+026154Y+022662
X+026405Y+023323
X+026319Y+024026
X+025917Y+024608
X+025291Y+024937
X+024583Y+024937
X+023957Y+024608
X+023555Y+024026
X+029970Y+023323
X+030221Y+022662
X+030750Y+022193
X+031437Y+022023
X+032124Y+022193
X+032654Y+022662
X+032905Y+023323
X+032819Y+024026
X+032417Y+024608
X+031791Y+024937
X+031083Y+024937
X+030457Y+024608
X+030055Y+024026
X+035470Y+023323
X+035721Y+022662
X+036250Y+022193
X+036937Y+022023
X+037624Y+022193
X+038154Y+022662
X+038405Y+023323
X+038319Y+024026
X+037917Y+024608
X+037291Y+024937
X+036583Y+024937
X+035957Y+024608
X+035555Y+024026
T05
X+023567Y+010124
X+024567Y+010124
X+022567Y+010124
T06
X+025750Y+016564
X+025750Y+017964
X+035773Y+015433
X+036773Y+015433
X+009250Y+015314
X+009250Y+014314
X+009250Y+013314
X+009250Y+012314
X+009250Y+011314
X+009250Y+010314
X+006250Y+010314
X+006250Y+011314
X+006250Y+012314
X+006250Y+013314
X+006250Y+014314
X+006250Y+015314
X+006250Y+016314
X+006250Y+017314
X+009250Y+017314
X+009250Y+016314
T07
X+008061Y+020503
X+008563Y+020503
X+009065Y+020503
X+009567Y+020503
X+009567Y+019624
X+009065Y+019624
X+008563Y+019624
X+008062Y+019626
X+035374Y+019624
X+035876Y+019624
X+036378Y+019624
X+036880Y+019624
X+036880Y+020503
X+036378Y+020503
X+035876Y+020503
X+035374Y+020503
T08
X+026812Y+011001
X+026812Y+012001
X+026812Y+013001
X+025812Y+013001
X+025812Y+012001
X+025812Y+011001
X+029631Y+011811
X+029631Y+010031
X+032191Y+010031
X+033631Y+010031
X+033631Y+011811
X+032191Y+011811
X+036191Y+011811
X+036191Y+010031
X+020437Y+018751
X+019437Y+018751
X+018437Y+018751
X+017437Y+018751
X+016437Y+018751
X+015437Y+018751
X+014437Y+018751
X+013437Y+018751
X+012437Y+018751
X+011437Y+018751
X+010437Y+018751
X+009437Y+018751
X+008437Y+018751
X+007437Y+018751
X+006437Y+018751
X+005437Y+018751
X+005437Y+026751
X+006437Y+026751
X+007437Y+026751
X+008437Y+026751
X+009437Y+026751
X+010437Y+026751
X+011437Y+026751
X+012437Y+026751
X+013437Y+026751
X+014437Y+026751
X+015437Y+026751
X+016437Y+026751
X+017437Y+026751
X+018437Y+026751
X+019437Y+026751
X+020437Y+026751
T09
X+032730Y+014033
X+028730Y+014033
T10
X+041315Y+010374
X+041315Y+012342
T11
X+041187Y+022376
X+041187Y+014376
T00
M30
