G04 DipTrace 3.0.0.1*
G04 TopAssy.gbr*
%MOIN*%
G04 #@! TF.FileFunction,Drawing,Top*
G04 #@! TF.Part,Single*
%AMOUTLINE0*5,1,8,0,0,0.063001,67.499118*%
%AMOUTLINE3*5,1,8,0,0,0.048001,-22.501296*%
%AMOUTLINE6*
4,1,20,
-0.023979,-0.024,
-0.032189,-0.02256,
-0.039411,-0.018399,
-0.044774,-0.012018,
-0.047631,-0.004188,
-0.047639,0.004147,
-0.044795,0.011982,
-0.039444,0.018371,
-0.032228,0.022546,
-0.024021,0.024,
0.023979,0.024,
0.032189,0.02256,
0.039411,0.018399,
0.044774,0.012018,
0.047631,0.004188,
0.047639,-0.004147,
0.044795,-0.011982,
0.039444,-0.018371,
0.032228,-0.022546,
0.024021,-0.024,
-0.023979,-0.024,
0*%
%AMOUTLINE9*5,1,8,0,0,0.06,67.500441*%
%AMOUTLINE12*
4,1,20,
-0.03,0.029974,
-0.028199,0.040236,
-0.022999,0.049264,
-0.015022,0.055967,
-0.005235,0.059539,
0.005184,0.059549,
0.014978,0.055993,
0.022965,0.049303,
0.028182,0.040285,
0.03,0.030026,
0.03,-0.029974,
0.028199,-0.040236,
0.022999,-0.049264,
0.015022,-0.055967,
0.005235,-0.059539,
-0.005184,-0.059549,
-0.014978,-0.055993,
-0.022965,-0.049303,
-0.028182,-0.040285,
-0.03,-0.030026,
-0.03,0.029974,
0*%
%AMOUTLINE15*
4,1,20,
-0.029974,-0.03,
-0.040236,-0.028199,
-0.049264,-0.022999,
-0.055967,-0.015022,
-0.059539,-0.005235,
-0.059549,0.005184,
-0.055993,0.014978,
-0.049303,0.022965,
-0.040285,0.028182,
-0.030026,0.03,
0.029974,0.03,
0.040236,0.028199,
0.049264,0.022999,
0.055967,0.015022,
0.059539,0.005235,
0.059549,-0.005184,
0.055993,-0.014978,
0.049303,-0.022965,
0.040285,-0.028182,
0.030026,-0.03,
-0.029974,-0.03,
0*%
%AMOUTLINE18*
4,1,20,
-0.035219,-0.035249,
-0.047277,-0.033135,
-0.057885,-0.027022,
-0.065762,-0.017652,
-0.069959,-0.006151,
-0.06997,0.006091,
-0.065793,0.017598,
-0.057932,0.026983,
-0.047335,0.033114,
-0.035281,0.035249,
0.035219,0.035249,
0.047277,0.033135,
0.057885,0.027022,
0.065762,0.017652,
0.069959,0.006151,
0.06997,-0.006091,
0.065793,-0.017598,
0.057932,-0.026983,
0.047335,-0.033114,
0.035281,-0.035249,
-0.035219,-0.035249,
0*%
%ADD19C,0.001312*%
%ADD20C,3.9E-5*%
%ADD21C,0.004*%
%ADD23C,0.006*%
%ADD27C,0.01*%
%ADD29C,0.03*%
%ADD31C,0.008*%
%ADD39C,0.005*%
%ADD52C,0.018*%
%ADD54C,0.098*%
%ADD22R,0.15748X0.062992*%
G04 #@! TA.AperFunction,ComponentPad*
%ADD24C,0.063*%
%ADD26R,0.051181X0.059055*%
%ADD28R,0.059055X0.051181*%
G04 #@! TA.AperFunction,ComponentPad*
%ADD30C,0.066*%
%ADD32R,0.11811X0.098425*%
%ADD33R,0.022X0.05*%
%ADD34R,0.05X0.022*%
%ADD35R,0.088X0.048*%
%ADD36R,0.086614X0.141732*%
G04 #@! TA.AperFunction,ComponentPad*
%ADD38R,0.042392X0.042461*%
%ADD40R,0.098425X0.216535*%
G04 #@! TA.AperFunction,ComponentPad*
%ADD41C,0.037205*%
%ADD43R,0.051181X0.062992*%
%ADD44R,0.062992X0.051181*%
%ADD46R,0.03937X0.062992*%
%ADD47R,0.212598X0.244094*%
%ADD48R,0.03937X0.055118*%
G04 #@! TA.AperFunction,ComponentPad*
%ADD50C,0.074*%
%ADD118OUTLINE0*%
%ADD121OUTLINE3*%
%ADD124OUTLINE6*%
%ADD127OUTLINE9*%
%ADD130OUTLINE12*%
%ADD133OUTLINE15*%
%ADD136OUTLINE18*%
%FSLAX26Y26*%
G04*
G70*
G90*
G75*
G01*
G04 TopAssy*
%LPD*%
X3627699Y1756392D2*
D20*
G02X3627699Y1756392I157498J0D01*
G01*
X3629666D2*
D21*
G02X3629666Y1756392I155531J0D01*
G01*
G36*
X3631632Y1774116D2*
X3594268D1*
Y1738636D1*
X3631632D1*
Y1774116D1*
G37*
G36*
X3976126D2*
X3938761D1*
Y1738636D1*
X3976126D1*
Y1774116D1*
G37*
X3623766Y1917810D2*
D21*
X3856080D1*
X3946628Y1827255D1*
Y1685530D1*
X3856080Y1594975D1*
X3623766D1*
Y1917810D1*
X3698582Y1884332D2*
Y1628453D1*
D22*
X3924961Y1756392D3*
X3645433D3*
G36*
X2524975Y1756440D2*
X2624975D1*
Y1736440D1*
X2524975D1*
Y1756440D1*
G37*
X2574959Y1661400D2*
D23*
Y1696376D1*
X2624943D1*
Y1716408D1*
X2524975D1*
Y1696376D1*
X2574959D1*
Y1751384D2*
Y1791384D1*
D24*
Y1656392D3*
D118*
Y1796392D3*
G36*
X2341609Y1551400D2*
X2371188D1*
Y1608468D1*
X2341609D1*
Y1551400D1*
G37*
G36*
X2284609D2*
X2314189D1*
Y1608468D1*
X2284609D1*
Y1551400D1*
G37*
X2343194Y1553985D2*
D21*
X2313179D1*
X2342199Y1605952D2*
X2313179D1*
D26*
X2361651Y1579969D3*
X2294722D3*
X3657325Y1543252D2*
D23*
X3642315D1*
X3612333D2*
X3597323D1*
D121*
X3577324D3*
X3677324D3*
G36*
X3715468Y1363627D2*
X3772559D1*
Y1334095D1*
X3715468D1*
Y1363627D1*
G37*
G36*
Y1420627D2*
X3772559D1*
Y1391094D1*
X3715468D1*
Y1420627D1*
G37*
X3718061Y1362058D2*
D21*
Y1392073D1*
X3770028Y1363053D2*
Y1392073D1*
D28*
X3744045Y1343601D3*
Y1410530D3*
G36*
X3809231Y1363659D2*
X3866276D1*
Y1334048D1*
X3809231D1*
Y1363659D1*
G37*
G36*
Y1420658D2*
X3866276D1*
Y1391048D1*
X3809231D1*
Y1420658D1*
G37*
X3811801Y1362058D2*
D21*
Y1392073D1*
X3863768Y1363053D2*
Y1392073D1*
D28*
X3837785Y1343601D3*
Y1410530D3*
G36*
X2614161Y1028479D2*
X2584674D1*
Y971365D1*
X2614161D1*
Y1028479D1*
G37*
G36*
X2671160D2*
X2641674D1*
Y971365D1*
X2671160D1*
Y1028479D1*
G37*
X2612623Y1025871D2*
D21*
X2642637D1*
X2613617Y973903D2*
X2642637D1*
D26*
X2594165Y999887D3*
X2661094D3*
X3272969Y1403278D2*
D29*
X3232940D1*
X2872955D2*
X2912984D1*
D30*
X3272962Y1403276D3*
X2872962D3*
G36*
X3806516Y1027115D2*
X3706547D1*
Y1047283D1*
X3806516D1*
Y1027115D1*
G37*
G36*
Y1211101D2*
X3706547D1*
Y1231269D1*
X3806516D1*
Y1211101D1*
G37*
G36*
X3803504Y1150108D2*
X3709559D1*
Y1185258D1*
X3803504D1*
Y1150108D1*
G37*
X3803539Y1046246D2*
D23*
Y1213237D1*
X3709547Y1046246D2*
Y1212230D1*
D32*
X3756543Y1024885D3*
Y1231577D3*
D124*
X924966Y1031390D3*
Y1131390D3*
Y1231390D3*
Y1331390D3*
Y1431390D3*
Y1531390D3*
Y1631390D3*
Y1731390D3*
X624966D3*
Y1631390D3*
Y1531390D3*
Y1431390D3*
Y1331390D3*
Y1231390D3*
Y1131390D3*
Y1031390D3*
G36*
X2174478Y1160155D2*
X2192481D1*
Y1121161D1*
X2174478D1*
Y1160155D1*
G37*
G36*
X2205983D2*
X2223986D1*
Y1121161D1*
X2205983D1*
Y1160155D1*
G37*
G36*
X2237489D2*
X2255492D1*
Y1121161D1*
X2237489D1*
Y1160155D1*
G37*
G36*
X2268994D2*
X2286959D1*
Y1121161D1*
X2268994D1*
Y1160155D1*
G37*
G36*
X2300461D2*
X2318464D1*
Y1121161D1*
X2300461D1*
Y1160155D1*
G37*
G36*
X2331967D2*
X2349970D1*
Y1121161D1*
X2331967D1*
Y1160155D1*
G37*
G36*
X2363472D2*
X2381476D1*
Y1121161D1*
X2363472D1*
Y1160155D1*
G37*
G36*
X2394978D2*
X2412942D1*
Y1121161D1*
X2394978D1*
Y1160155D1*
G37*
G36*
X2433700Y1198916D2*
X2472733D1*
Y1180913D1*
X2433700D1*
Y1198916D1*
G37*
G36*
Y1230422D2*
X2472733D1*
Y1212419D1*
X2433700D1*
Y1230422D1*
G37*
G36*
Y1261928D2*
X2472733D1*
Y1243924D1*
X2433700D1*
Y1261928D1*
G37*
G36*
Y1293394D2*
X2472733D1*
Y1275430D1*
X2433700D1*
Y1293394D1*
G37*
G36*
Y1324900D2*
X2472733D1*
Y1306897D1*
X2433700D1*
Y1324900D1*
G37*
G36*
Y1356406D2*
X2472733D1*
Y1338402D1*
X2433700D1*
Y1356406D1*
G37*
G36*
Y1387911D2*
X2472733D1*
Y1369908D1*
X2433700D1*
Y1387911D1*
G37*
G36*
Y1419378D2*
X2472733D1*
Y1401414D1*
X2433700D1*
Y1419378D1*
G37*
G36*
X2394978Y1479169D2*
X2412942D1*
Y1440136D1*
X2394978D1*
Y1479169D1*
G37*
G36*
X2363472D2*
X2381476D1*
Y1440136D1*
X2363472D1*
Y1479169D1*
G37*
G36*
X2331967D2*
X2349970D1*
Y1440136D1*
X2331967D1*
Y1479169D1*
G37*
G36*
X2300461D2*
X2318464D1*
Y1440136D1*
X2300461D1*
Y1479169D1*
G37*
G36*
X2268994D2*
X2286959D1*
Y1440136D1*
X2268994D1*
Y1479169D1*
G37*
G36*
X2237489D2*
X2255492D1*
Y1440136D1*
X2237489D1*
Y1479169D1*
G37*
G36*
X2205983D2*
X2223986D1*
Y1440136D1*
X2205983D1*
Y1479169D1*
G37*
G36*
X2174478D2*
X2192481D1*
Y1440136D1*
X2174478D1*
Y1479169D1*
G37*
G36*
X2114726Y1419378D2*
X2153720D1*
Y1401414D1*
X2114726D1*
Y1419378D1*
G37*
G36*
Y1387911D2*
X2153720D1*
Y1369908D1*
X2114726D1*
Y1387911D1*
G37*
G36*
Y1356406D2*
X2153720D1*
Y1338402D1*
X2114726D1*
Y1356406D1*
G37*
G36*
Y1324900D2*
X2153720D1*
Y1306897D1*
X2114726D1*
Y1324900D1*
G37*
G36*
Y1293394D2*
X2153720D1*
Y1275430D1*
X2114726D1*
Y1293394D1*
G37*
G36*
Y1261928D2*
X2153720D1*
Y1243924D1*
X2114726D1*
Y1261928D1*
G37*
G36*
Y1230422D2*
X2153720D1*
Y1212419D1*
X2114726D1*
Y1230422D1*
G37*
G36*
Y1198916D2*
X2153720D1*
Y1180913D1*
X2114726D1*
Y1198916D1*
G37*
D33*
X2183474Y1131146D3*
X2214970D3*
X2246466D3*
X2277962D3*
X2309458D3*
X2340954D3*
X2372450D3*
X2403946D3*
D34*
X2462710Y1189909D3*
Y1221406D3*
Y1252902D3*
Y1284398D3*
Y1315894D3*
Y1347390D3*
Y1378886D3*
Y1410382D3*
D33*
X2403946Y1469146D3*
X2372450D3*
X2340954D3*
X2309458D3*
X2277962D3*
X2246466D3*
X2214970D3*
X2183474D3*
D34*
X2124710Y1410382D3*
Y1378886D3*
Y1347390D3*
Y1315894D3*
Y1284398D3*
Y1252902D3*
Y1221406D3*
Y1189909D3*
G36*
X3359362Y1410140D2*
X3432351D1*
Y1284132D1*
X3359362D1*
Y1410140D1*
G37*
G36*
X3574319Y1364138D2*
X3647308D1*
Y1330134D1*
X3574319D1*
Y1364138D1*
G37*
G36*
Y1273142D2*
X3647308D1*
Y1239137D1*
X3574319D1*
Y1273142D1*
G37*
G36*
Y1455135D2*
X3647308D1*
Y1421130D1*
X3574319D1*
Y1455135D1*
G37*
G36*
X3359362Y1410140D2*
X3432351D1*
Y1284132D1*
X3359362D1*
Y1410140D1*
G37*
G36*
X3574319Y1364138D2*
X3647308D1*
Y1330134D1*
X3574319D1*
Y1364138D1*
G37*
G36*
Y1273142D2*
X3647308D1*
Y1239137D1*
X3574319D1*
Y1273142D1*
G37*
G36*
Y1455135D2*
X3647308D1*
Y1421130D1*
X3574319D1*
Y1455135D1*
G37*
D35*
X3625307Y1256110D3*
Y1347110D3*
Y1438110D3*
D36*
X3381299Y1347110D3*
G36*
X2671210Y1110139D2*
X2691210D1*
Y1090159D1*
X2671210D1*
Y1110139D1*
G37*
G36*
X2571210D2*
X2591210D1*
Y1090159D1*
X2571210D1*
Y1110139D1*
G37*
G36*
Y1210159D2*
X2591210D1*
Y1190149D1*
X2571210D1*
Y1210159D1*
G37*
G36*
X2671210D2*
X2691210D1*
Y1190149D1*
X2671210D1*
Y1210159D1*
G37*
G36*
X2571210Y1310149D2*
X2591210D1*
Y1290139D1*
X2571210D1*
Y1310149D1*
G37*
G36*
X2671210D2*
X2691210D1*
Y1290139D1*
X2671210D1*
Y1310149D1*
G37*
D38*
X2681210Y1100139D3*
D127*
X2581210D3*
X2681210Y1200139D3*
X2581210D3*
X2681210Y1300139D3*
X2581210D3*
G36*
X1953710Y2685146D2*
X1933710D1*
Y2665126D1*
X1953710D1*
Y2685146D1*
G37*
G36*
X1853710D2*
X1833710D1*
Y2665126D1*
X1853710D1*
Y2685146D1*
G37*
G36*
X1753710D2*
X1733710D1*
Y2665126D1*
X1753710D1*
Y2685146D1*
G37*
G36*
X1653710D2*
X1633710D1*
Y2665126D1*
X1653710D1*
Y2685146D1*
G37*
G36*
X1553710D2*
X1533710D1*
Y2665126D1*
X1553710D1*
Y2685146D1*
G37*
G36*
X1453710D2*
X1433710D1*
Y2665126D1*
X1453710D1*
Y2685146D1*
G37*
G36*
X1353710D2*
X1333710D1*
Y2665126D1*
X1353710D1*
Y2685146D1*
G37*
G36*
X1253710D2*
X1233710D1*
Y2665126D1*
X1253710D1*
Y2685146D1*
G37*
G36*
X1153710D2*
X1133710D1*
Y2665126D1*
X1153710D1*
Y2685146D1*
G37*
G36*
X1053710D2*
X1033710D1*
Y2665126D1*
X1053710D1*
Y2685146D1*
G37*
G36*
X953710D2*
X933710D1*
Y2665126D1*
X953710D1*
Y2685146D1*
G37*
G36*
X853710D2*
X833710D1*
Y2665126D1*
X853710D1*
Y2685146D1*
G37*
G36*
X753710D2*
X733710D1*
Y2665126D1*
X753710D1*
Y2685146D1*
G37*
G36*
X653710D2*
X633710D1*
Y2665126D1*
X653710D1*
Y2685146D1*
G37*
G36*
X553710D2*
X533710D1*
Y2665126D1*
X553710D1*
Y2685146D1*
G37*
G36*
X2053710D2*
X2033710D1*
Y2665126D1*
X2053710D1*
Y2685146D1*
G37*
D130*
X543710Y2675142D3*
X643710D3*
X743710D3*
X843710D3*
X943710D3*
X1043710D3*
X1143710D3*
X1243710D3*
X1343710D3*
X1443710D3*
X1543710D3*
X1643710D3*
X1743710D3*
X1843710D3*
X1943710D3*
X2043710D3*
G36*
X1953710Y1885146D2*
X1933710D1*
Y1865126D1*
X1953710D1*
Y1885146D1*
G37*
G36*
X1853710D2*
X1833710D1*
Y1865126D1*
X1853710D1*
Y1885146D1*
G37*
G36*
X1753710D2*
X1733710D1*
Y1865126D1*
X1753710D1*
Y1885146D1*
G37*
G36*
X1653710D2*
X1633710D1*
Y1865126D1*
X1653710D1*
Y1885146D1*
G37*
G36*
X1553710D2*
X1533710D1*
Y1865126D1*
X1553710D1*
Y1885146D1*
G37*
G36*
X1453710D2*
X1433710D1*
Y1865126D1*
X1453710D1*
Y1885146D1*
G37*
G36*
X1353710D2*
X1333710D1*
Y1865126D1*
X1353710D1*
Y1885146D1*
G37*
G36*
X1253710D2*
X1233710D1*
Y1865126D1*
X1253710D1*
Y1885146D1*
G37*
G36*
X1153710D2*
X1133710D1*
Y1865126D1*
X1153710D1*
Y1885146D1*
G37*
G36*
X1053710D2*
X1033710D1*
Y1865126D1*
X1053710D1*
Y1885146D1*
G37*
G36*
X953710D2*
X933710D1*
Y1865126D1*
X953710D1*
Y1885146D1*
G37*
G36*
X853710D2*
X833710D1*
Y1865126D1*
X853710D1*
Y1885146D1*
G37*
G36*
X753710D2*
X733710D1*
Y1865126D1*
X753710D1*
Y1885146D1*
G37*
G36*
X653710D2*
X633710D1*
Y1865126D1*
X653710D1*
Y1885146D1*
G37*
G36*
X553710D2*
X533710D1*
Y1865126D1*
X553710D1*
Y1885146D1*
G37*
G36*
X2053710D2*
X2033710D1*
Y1865126D1*
X2053710D1*
Y1885146D1*
G37*
D130*
X543710Y1875142D3*
X643710D3*
X743710D3*
X843710D3*
X943710D3*
X1043710D3*
X1143710D3*
X1243710D3*
X1343710D3*
X1443710D3*
X1543710D3*
X1643710D3*
X1743710D3*
X1843710D3*
X1943710D3*
X2043710D3*
D40*
X2702273Y1705260D3*
X3131407D3*
D41*
X675017Y2219256D3*
X812403D3*
X645690Y2460783D3*
X890450Y2332323D3*
X841730Y2460783D3*
X779084Y2493661D3*
X708336D3*
X865360Y2266173D3*
X596970Y2332323D3*
X622060Y2266173D3*
X743710Y2202323D3*
X605497Y2402559D3*
X881923D3*
X1225017Y2219256D3*
X1362403D3*
X1195690Y2460783D3*
X1440450Y2332323D3*
X1391730Y2460783D3*
X1329084Y2493661D3*
X1258336D3*
X1415360Y2266173D3*
X1146970Y2332323D3*
X1172060Y2266173D3*
X1293710Y2202323D3*
X1155497Y2402559D3*
X1431923D3*
X1875017Y2219256D3*
X2012403D3*
X1845690Y2460783D3*
X2090450Y2332323D3*
X2041730Y2460783D3*
X1979084Y2493661D3*
X1908336D3*
X2065360Y2266173D3*
X1796970Y2332323D3*
X1822060Y2266173D3*
X1943710Y2202323D3*
X1805497Y2402559D3*
X2081923D3*
X2425017Y2219256D3*
X2562403D3*
X2395690Y2460783D3*
X2640450Y2332323D3*
X2591730Y2460783D3*
X2529084Y2493661D3*
X2458336D3*
X2615360Y2266173D3*
X2346970Y2332323D3*
X2372060Y2266173D3*
X2493710Y2202323D3*
X2355497Y2402559D3*
X2631923D3*
X3075017Y2219256D3*
X3212403D3*
X3045690Y2460783D3*
X3290450Y2332323D3*
X3241730Y2460783D3*
X3179084Y2493661D3*
X3108336D3*
X3265360Y2266173D3*
X2996970Y2332323D3*
X3022060Y2266173D3*
X3143710Y2202323D3*
X3005497Y2402559D3*
X3281923D3*
X3625017Y2219256D3*
X3762403D3*
X3595690Y2460783D3*
X3840450Y2332323D3*
X3791730Y2460783D3*
X3729084Y2493661D3*
X3658336D3*
X3815360Y2266173D3*
X3546970Y2332323D3*
X3572060Y2266173D3*
X3693710Y2202323D3*
X3555497Y2402559D3*
X3831923D3*
G36*
X2264416Y1840905D2*
X2278460D1*
Y1896890D1*
X2264416D1*
Y1840905D1*
G37*
G36*
X2196417D2*
X2210461D1*
Y1896890D1*
X2196417D1*
Y1840905D1*
G37*
X2209467Y1843893D2*
D23*
X2265457D1*
X2209467Y1893894D2*
X2265457D1*
D43*
X2274864Y1868894D3*
X2200060D3*
G36*
X2264416Y1753409D2*
X2278460D1*
Y1809394D1*
X2264416D1*
Y1753409D1*
G37*
G36*
X2196417D2*
X2210461D1*
Y1809394D1*
X2196417D1*
Y1753409D1*
G37*
X2209467Y1756397D2*
D23*
X2265457D1*
X2209467Y1806398D2*
X2265457D1*
D43*
X2274864Y1781398D3*
X2200060D3*
G36*
X1434462Y1441901D2*
X1490462D1*
Y1427903D1*
X1434462D1*
Y1441901D1*
G37*
G36*
Y1509915D2*
X1490462D1*
Y1495902D1*
X1434462D1*
Y1509915D1*
G37*
X1437457Y1496881D2*
D23*
Y1440891D1*
X1487459Y1496881D2*
Y1440891D1*
D44*
X1462458Y1431484D3*
Y1506287D3*
G36*
X1553214Y1441905D2*
X1609214D1*
Y1427907D1*
X1553214D1*
Y1441905D1*
G37*
G36*
Y1509919D2*
X1609214D1*
Y1495906D1*
X1553214D1*
Y1509919D1*
G37*
X1556209Y1496885D2*
D23*
Y1440895D1*
X1606211Y1496885D2*
Y1440895D1*
D44*
X1581210Y1431488D3*
Y1506291D3*
G36*
X1678214Y1441905D2*
X1734214D1*
Y1427907D1*
X1678214D1*
Y1441905D1*
G37*
G36*
Y1509919D2*
X1734214D1*
Y1495906D1*
X1678214D1*
Y1509919D1*
G37*
X1681209Y1496885D2*
D23*
Y1440895D1*
X1731211Y1496885D2*
Y1440895D1*
D44*
X1706210Y1431488D3*
Y1506291D3*
G36*
X1790714Y1441809D2*
X1846714D1*
Y1427811D1*
X1790714D1*
Y1441809D1*
G37*
G36*
Y1509823D2*
X1846714D1*
Y1495810D1*
X1790714D1*
Y1509823D1*
G37*
X1793709Y1496789D2*
D23*
Y1440799D1*
X1843711Y1496789D2*
Y1440799D1*
D44*
X1818710Y1431392D3*
Y1506196D3*
G36*
X1178214Y1435653D2*
X1234214D1*
Y1421655D1*
X1178214D1*
Y1435653D1*
G37*
G36*
Y1503667D2*
X1234214D1*
Y1489654D1*
X1178214D1*
Y1503667D1*
G37*
X1181209Y1490633D2*
D23*
Y1434643D1*
X1231211Y1490633D2*
Y1434643D1*
D44*
X1206210Y1425236D3*
Y1500039D3*
G36*
X1303210Y1435657D2*
X1359210D1*
Y1421659D1*
X1303210D1*
Y1435657D1*
G37*
G36*
Y1503671D2*
X1359210D1*
Y1489658D1*
X1303210D1*
Y1503671D1*
G37*
X1306205Y1490637D2*
D23*
Y1434647D1*
X1356207Y1490637D2*
Y1434647D1*
D44*
X1331206Y1425240D3*
Y1500043D3*
G36*
X2039558Y1459387D2*
X2053509D1*
Y1403379D1*
X2039558D1*
Y1459387D1*
G37*
G36*
X1971560D2*
X1985511D1*
Y1403379D1*
X1971560D1*
Y1459387D1*
G37*
X1984563Y1406390D2*
D23*
X2040553D1*
X1984563Y1456392D2*
X2040553D1*
D43*
X2049959Y1431391D3*
X1975156D3*
G36*
X1995809Y1334389D2*
X2009760D1*
Y1278381D1*
X1995809D1*
Y1334389D1*
G37*
G36*
X1927810D2*
X1941761D1*
Y1278381D1*
X1927810D1*
Y1334389D1*
G37*
X1940814Y1281392D2*
D23*
X1996803D1*
X1940814Y1331393D2*
X1996803D1*
D43*
X2006210Y1306392D3*
X1931407D3*
G36*
X1971706Y1214725D2*
X1915706D1*
Y1228723D1*
X1971706D1*
Y1214725D1*
G37*
G36*
Y1146711D2*
X1915706D1*
Y1160724D1*
X1971706D1*
Y1146711D1*
G37*
X1968711Y1159745D2*
D23*
Y1215735D1*
X1918709Y1159745D2*
Y1215735D1*
D44*
X1943710Y1225142D3*
Y1150339D3*
D133*
X3619058Y1181118D3*
X3363058D3*
X3619058Y1003118D3*
X3363058D3*
X3219100Y1181118D3*
X2963100D3*
X3219100Y1003118D3*
X2963100D3*
G36*
X3289446Y1617406D2*
X3255566D1*
Y1503353D1*
X3289446D1*
Y1617406D1*
G37*
G36*
X3469451D2*
X3435540D1*
Y1503353D1*
X3469451D1*
Y1617406D1*
G37*
X3233449Y1857386D2*
D31*
X3491506D1*
X3261448Y1861390D2*
Y1889421D1*
X3279467Y1907417D1*
X3445457D1*
X3463476Y1889421D1*
Y1861390D1*
X3261448D1*
D46*
X3272698Y1517421D3*
X3452226D3*
D47*
X3362462Y1804823D3*
G36*
X1177703Y1676137D2*
X1159721D1*
Y1653134D1*
X1177703D1*
Y1676137D1*
G37*
G36*
X1214706Y1597135D2*
X1196724D1*
Y1574132D1*
X1214706D1*
Y1597135D1*
G37*
G36*
X1140711D2*
X1122728D1*
Y1574132D1*
X1140711D1*
Y1597135D1*
G37*
X1224708Y1651135D2*
D39*
Y1599148D1*
X1112704D1*
Y1651135D1*
X1224708D1*
D48*
X1131304Y1581835D3*
X1168706Y1668449D3*
X1206108Y1581835D3*
G36*
X1302703Y1676137D2*
X1284721D1*
Y1653134D1*
X1302703D1*
Y1676137D1*
G37*
G36*
X1339706Y1597135D2*
X1321724D1*
Y1574132D1*
X1339706D1*
Y1597135D1*
G37*
G36*
X1265711D2*
X1247728D1*
Y1574132D1*
X1265711D1*
Y1597135D1*
G37*
X1349708Y1651135D2*
D39*
Y1599148D1*
X1237704D1*
Y1651135D1*
X1349708D1*
D48*
X1256304Y1581835D3*
X1293706Y1668449D3*
X1331108Y1581835D3*
G36*
X1427711Y1676133D2*
X1409728D1*
Y1653130D1*
X1427711D1*
Y1676133D1*
G37*
G36*
X1464714Y1597131D2*
X1446732D1*
Y1574128D1*
X1464714D1*
Y1597131D1*
G37*
G36*
X1390719D2*
X1372736D1*
Y1574128D1*
X1390719D1*
Y1597131D1*
G37*
X1474716Y1651131D2*
D39*
Y1599144D1*
X1362712D1*
Y1651131D1*
X1474716D1*
D48*
X1381312Y1581831D3*
X1418714Y1668445D3*
X1456115Y1581831D3*
G36*
X1552699Y1676137D2*
X1534717D1*
Y1653134D1*
X1552699D1*
Y1676137D1*
G37*
G36*
X1589702Y1597135D2*
X1571720D1*
Y1574132D1*
X1589702D1*
Y1597135D1*
G37*
G36*
X1515707D2*
X1497725D1*
Y1574132D1*
X1515707D1*
Y1597135D1*
G37*
X1599704Y1651135D2*
D39*
Y1599148D1*
X1487700D1*
Y1651135D1*
X1599704D1*
D48*
X1506301Y1581835D3*
X1543702Y1668449D3*
X1581104Y1581835D3*
G36*
X1677703Y1676141D2*
X1659721D1*
Y1653138D1*
X1677703D1*
Y1676141D1*
G37*
G36*
X1714706Y1597139D2*
X1696724D1*
Y1574136D1*
X1714706D1*
Y1597139D1*
G37*
G36*
X1640711D2*
X1622728D1*
Y1574136D1*
X1640711D1*
Y1597139D1*
G37*
X1724708Y1651139D2*
D39*
Y1599152D1*
X1612704D1*
Y1651139D1*
X1724708D1*
D48*
X1631304Y1581839D3*
X1668706Y1668453D3*
X1706108Y1581839D3*
G36*
X1802707Y1676137D2*
X1784725D1*
Y1653134D1*
X1802707D1*
Y1676137D1*
G37*
G36*
X1839710Y1597135D2*
X1821728D1*
Y1574132D1*
X1839710D1*
Y1597135D1*
G37*
G36*
X1765715D2*
X1747732D1*
Y1574132D1*
X1765715D1*
Y1597135D1*
G37*
X1849712Y1651135D2*
D39*
Y1599148D1*
X1737708D1*
Y1651135D1*
X1849712D1*
D48*
X1756308Y1581835D3*
X1793710Y1668449D3*
X1831112Y1581835D3*
G36*
X1177703Y1363633D2*
X1159721D1*
Y1340630D1*
X1177703D1*
Y1363633D1*
G37*
G36*
X1214706Y1284631D2*
X1196724D1*
Y1261628D1*
X1214706D1*
Y1284631D1*
G37*
G36*
X1140711D2*
X1122728D1*
Y1261628D1*
X1140711D1*
Y1284631D1*
G37*
X1224708Y1338631D2*
D39*
Y1286644D1*
X1112704D1*
Y1338631D1*
X1224708D1*
D48*
X1131304Y1269331D3*
X1168706Y1355945D3*
X1206108Y1269331D3*
G36*
X1302699Y1363633D2*
X1284717D1*
Y1340630D1*
X1302699D1*
Y1363633D1*
G37*
G36*
X1339702Y1284631D2*
X1321720D1*
Y1261628D1*
X1339702D1*
Y1284631D1*
G37*
G36*
X1265707D2*
X1247725D1*
Y1261628D1*
X1265707D1*
Y1284631D1*
G37*
X1349704Y1338631D2*
D39*
Y1286644D1*
X1237700D1*
Y1338631D1*
X1349704D1*
D48*
X1256301Y1269331D3*
X1293702Y1355945D3*
X1331104Y1269331D3*
G36*
X1427703Y1363633D2*
X1409721D1*
Y1340630D1*
X1427703D1*
Y1363633D1*
G37*
G36*
X1464706Y1284631D2*
X1446724D1*
Y1261628D1*
X1464706D1*
Y1284631D1*
G37*
G36*
X1390711D2*
X1372728D1*
Y1261628D1*
X1390711D1*
Y1284631D1*
G37*
X1474708Y1338631D2*
D39*
Y1286644D1*
X1362704D1*
Y1338631D1*
X1474708D1*
D48*
X1381304Y1269331D3*
X1418706Y1355945D3*
X1456108Y1269331D3*
G36*
X1552699Y1363637D2*
X1534717D1*
Y1340634D1*
X1552699D1*
Y1363637D1*
G37*
G36*
X1589702Y1284635D2*
X1571720D1*
Y1261632D1*
X1589702D1*
Y1284635D1*
G37*
G36*
X1515707D2*
X1497725D1*
Y1261632D1*
X1515707D1*
Y1284635D1*
G37*
X1599704Y1338635D2*
D39*
Y1286648D1*
X1487700D1*
Y1338635D1*
X1599704D1*
D48*
X1506301Y1269335D3*
X1543702Y1355949D3*
X1581104Y1269335D3*
G36*
X1677707Y1363637D2*
X1659725D1*
Y1340634D1*
X1677707D1*
Y1363637D1*
G37*
G36*
X1714710Y1284635D2*
X1696728D1*
Y1261632D1*
X1714710D1*
Y1284635D1*
G37*
G36*
X1640715D2*
X1622732D1*
Y1261632D1*
X1640715D1*
Y1284635D1*
G37*
X1724712Y1338635D2*
D39*
Y1286648D1*
X1612708D1*
Y1338635D1*
X1724712D1*
D48*
X1631308Y1269335D3*
X1668710Y1355949D3*
X1706112Y1269335D3*
G36*
X1802707Y1363637D2*
X1784725D1*
Y1340634D1*
X1802707D1*
Y1363637D1*
G37*
G36*
X1839710Y1284635D2*
X1821728D1*
Y1261632D1*
X1839710D1*
Y1284635D1*
G37*
G36*
X1765715D2*
X1747732D1*
Y1261632D1*
X1765715D1*
Y1284635D1*
G37*
X1849712Y1338635D2*
D39*
Y1286648D1*
X1737708D1*
Y1338635D1*
X1849712D1*
D48*
X1756308Y1269335D3*
X1793710Y1355949D3*
X1831112Y1269335D3*
D50*
X2356690Y1012386D3*
X2256690D3*
X2456690D3*
X4088713Y2237642D2*
D52*
G02X4088713Y2237642I29997J0D01*
G01*
X4033714D2*
D54*
G03X4118710Y2152646I84947J-49D01*
G01*
Y2322638D2*
G02X4203706Y2237642I3J-84993D01*
G01*
X4088713Y1437642D2*
D52*
G02X4088713Y1437642I29997J0D01*
G01*
X4033714D2*
D54*
G03X4118710Y1352646I84947J-49D01*
G01*
Y1522638D2*
G02X4203706Y1437642I3J-84993D01*
G01*
X4072493Y1037384D2*
D23*
G02X4072493Y1037384I59007J0D01*
G01*
Y1234391D2*
G02X4072493Y1234391I59007J0D01*
G01*
X4171503Y998379D2*
D27*
X4092476Y1077371D1*
X4170525Y1194404D2*
X4091499Y1272373D1*
X4202490Y1002388D2*
D23*
Y1072380D1*
Y1199395D2*
Y1269387D1*
D136*
X4131504Y1037383D3*
Y1234234D3*
X1600520Y393701D2*
D19*
X1600527D1*
X1600550D1*
X1600588D1*
X1600641D1*
X1600708D1*
X1600790D1*
X1600885D1*
X1600994D1*
X1601116D1*
X1601251D1*
X1601397D1*
X1601554D1*
X1601721D1*
X1601897D1*
X1602082D1*
X1602275D1*
X1602474D1*
X1602679D1*
X1602888D1*
X1603102D1*
X1603318D1*
X1603535D1*
X1603753D1*
X1603971D1*
X1604187D1*
X1604400D1*
X1604610D1*
X1604815D1*
X1605014D1*
X1605207D1*
X1605392D1*
X1605568D1*
X1605735D1*
X1605892D1*
X1606038D1*
X1606172D1*
X1606294D1*
X1606403D1*
X1606499D1*
X1606581D1*
X1606648D1*
X1606701D1*
X1606739D1*
X1606761D1*
X1606769D1*
X1606761D1*
X1606739D1*
X1606701D1*
X1606648D1*
X1606581D1*
X1606499D1*
X1606403D1*
X1606294D1*
X1606172D1*
X1606038D1*
X1605892D1*
X1605735D1*
X1605568D1*
X1605392D1*
X1605207D1*
X1605014D1*
X1604815D1*
X1604610D1*
X1604400D1*
X1604187D1*
X1603971D1*
X1603753D1*
X1603535D1*
X1603318D1*
X1603102D1*
X1602888D1*
X1602679D1*
X1602474D1*
X1602275D1*
X1602082D1*
X1601897D1*
X1601721D1*
X1601554D1*
X1601397D1*
X1601251D1*
X1601116D1*
X1600994D1*
X1600885D1*
X1600790D1*
X1600708D1*
X1600641D1*
X1600588D1*
X1600550D1*
X1600527D1*
X1600520D1*
M02*
