G04 DipTrace 3.0.0.1*
G04 TopPaste.gbr*
%MOIN*%
G04 #@! TF.FileFunction,Paste,Top*
G04 #@! TF.Part,Single*
%ADD75R,0.031496X0.047244*%
%ADD77R,0.204724X0.23622*%
%ADD79R,0.031496X0.055118*%
%ADD83R,0.055118X0.043307*%
%ADD85R,0.043307X0.055118*%
%ADD91R,0.090551X0.208661*%
%ADD97R,0.07874X0.133858*%
%ADD99R,0.080126X0.040126*%
%ADD101R,0.042126X0.014126*%
%ADD103R,0.014126X0.042126*%
%ADD105R,0.110236X0.090551*%
%ADD109R,0.051181X0.043307*%
%ADD111R,0.043307X0.051181*%
%ADD115R,0.149606X0.055118*%
%FSLAX26Y26*%
G04*
G70*
G90*
G75*
G01*
G04 TopPaste*
%LPD*%
D115*
X3924961Y1756392D3*
X3645433D3*
D111*
X2361651Y1579969D3*
X2294722D3*
D109*
X3744045Y1343601D3*
Y1410530D3*
X3837785Y1343601D3*
Y1410530D3*
D111*
X2594165Y999887D3*
X2661094D3*
D105*
X3756543Y1024885D3*
Y1231577D3*
D103*
X2183474Y1131146D3*
X2214970D3*
X2246466D3*
X2277962D3*
X2309458D3*
X2340954D3*
X2372450D3*
X2403946D3*
D101*
X2462710Y1189909D3*
Y1221406D3*
Y1252902D3*
Y1284398D3*
Y1315894D3*
Y1347390D3*
Y1378886D3*
Y1410382D3*
D103*
X2403946Y1469146D3*
X2372450D3*
X2340954D3*
X2309458D3*
X2277962D3*
X2246466D3*
X2214970D3*
X2183474D3*
D101*
X2124710Y1410382D3*
Y1378886D3*
Y1347390D3*
Y1315894D3*
Y1284398D3*
Y1252902D3*
Y1221406D3*
Y1189909D3*
D99*
X3625307Y1256110D3*
Y1347110D3*
Y1438110D3*
D97*
X3381299Y1347110D3*
D91*
X2702273Y1705260D3*
X3131407D3*
D85*
X2274864Y1868894D3*
X2200060D3*
X2274864Y1781398D3*
X2200060D3*
D83*
X1462458Y1431484D3*
Y1506287D3*
X1581210Y1431488D3*
Y1506291D3*
X1706210Y1431488D3*
Y1506291D3*
X1818710Y1431392D3*
Y1506196D3*
X1206210Y1425236D3*
Y1500039D3*
X1331206Y1425240D3*
Y1500043D3*
D85*
X2049959Y1431391D3*
X1975156D3*
X2006210Y1306392D3*
X1931407D3*
D83*
X1943710Y1225142D3*
Y1150339D3*
D79*
X3272698Y1517421D3*
X3452226D3*
D77*
X3362462Y1804823D3*
D75*
X1131304Y1581835D3*
X1168706Y1668449D3*
X1206108Y1581835D3*
X1256304D3*
X1293706Y1668449D3*
X1331108Y1581835D3*
X1381312Y1581831D3*
X1418714Y1668445D3*
X1456115Y1581831D3*
X1506301Y1581835D3*
X1543702Y1668449D3*
X1581104Y1581835D3*
X1631304Y1581839D3*
X1668706Y1668453D3*
X1706108Y1581839D3*
X1756308Y1581835D3*
X1793710Y1668449D3*
X1831112Y1581835D3*
X1131304Y1269331D3*
X1168706Y1355945D3*
X1206108Y1269331D3*
X1256301D3*
X1293702Y1355945D3*
X1331104Y1269331D3*
X1381304D3*
X1418706Y1355945D3*
X1456108Y1269331D3*
X1506301Y1269335D3*
X1543702Y1355949D3*
X1581104Y1269335D3*
X1631308D3*
X1668710Y1355949D3*
X1706112Y1269335D3*
X1756308D3*
X1793710Y1355949D3*
X1831112Y1269335D3*
M02*
