G04 DipTrace 3.0.0.1*
G04 TopSilk.gbr*
%MOIN*%
G04 #@! TF.FileFunction,Legend,Top*
G04 #@! TF.Part,Single*
%ADD21C,0.004*%
%ADD23C,0.006*%
%ADD27C,0.01*%
%ADD31C,0.008*%
%ADD39C,0.005*%
%ADD116C,0.00772*%
%FSLAX26Y26*%
G04*
G70*
G90*
G75*
G01*
G04 TopSilk*
%LPD*%
X3623766Y1795778D2*
D21*
Y1917810D1*
X3856080D1*
X3946628Y1827255D1*
Y1795778D1*
Y1717007D2*
Y1685530D1*
X3856080Y1594975D1*
X3623766D1*
Y1717007D1*
X3633643Y1791840D2*
G02X3936751Y1791840I151554J-35413D01*
G01*
X3633643Y1720945D2*
G03X3936751Y1720945I151554J35413D01*
G01*
X2414959Y1726392D2*
D23*
G02X2414959Y1726392I160000J0D01*
G01*
X2529967Y1591384D2*
Y1621400D1*
X2544943Y1606392D2*
X2514959D1*
X3542318Y1603252D2*
X3712330D1*
Y1483252D2*
X3542318D1*
X3722324Y1593256D2*
Y1493248D1*
X3532324Y1593256D2*
Y1493248D1*
X3712330Y1603252D2*
G02X3722324Y1593256I1J-9993D01*
G01*
X3532324D2*
G02X3542318Y1603252I10005J-9D01*
G01*
X3712330Y1483252D2*
G03X3722324Y1493248I9J9985D01*
G01*
X3532324D2*
G03X3542318Y1483252I9981J-15D01*
G01*
X3642315Y1543252D2*
X3637318D1*
D27*
Y1573252D1*
Y1543252D2*
Y1513252D1*
X3617330Y1573252D2*
Y1543252D1*
Y1513252D1*
Y1543252D2*
D23*
X3612333D1*
G36*
X3027946Y1453276D2*
X3008048D1*
Y1353260D1*
X3027946D1*
Y1453276D1*
G37*
G36*
X3227954Y1418280D2*
X3152974D1*
Y1388215D1*
X3227954D1*
Y1418280D1*
G37*
G36*
X2992950D2*
X2917970D1*
Y1388215D1*
X2992950D1*
Y1418280D1*
G37*
X3152974Y1353280D2*
D23*
X2992950D1*
X3152974D2*
Y1453276D1*
X2992950D2*
X3152974D1*
X2992950D2*
Y1353280D1*
X3047984Y1403278D2*
X3072962D1*
X3112945Y1428272D2*
Y1378274D1*
X3072962Y1403278D1*
X3132983D1*
X3072962D2*
X3112945Y1428272D1*
X3072962D2*
Y1403278D1*
Y1378274D1*
X3795909Y1103547D2*
D31*
X3756543Y1157614D1*
X3717177Y1103547D1*
X3795909D1*
X3803539Y1084111D2*
D23*
Y1171405D1*
X3709547Y1084111D2*
Y1170429D1*
X659979Y1781390D2*
Y981390D1*
X889952D2*
Y1781390D1*
X659979D2*
X889952D1*
X659979Y981390D2*
X734964D1*
X889952D2*
X814968D1*
X734964D2*
G02X814968Y981390I40002J-2D01*
G01*
X2171568Y1192146D2*
G02X2171568Y1192146I14143J0D01*
G01*
X2155737Y1438118D2*
X2431683D1*
Y1162173D1*
X2169705D1*
X2155737Y1176141D2*
Y1438118D1*
Y1176141D2*
X2169705Y1162173D1*
X3433311Y1476110D2*
D31*
X3573292D1*
Y1218110D1*
X3433311D1*
Y1476110D1*
X2531210Y1050139D2*
D27*
Y1350139D1*
X2731210D1*
Y1050139D1*
X2531210D1*
X1893710Y2700140D2*
D23*
X1918670Y2725139D1*
X1968750D1*
X1993710Y2700140D1*
Y2650143D1*
X1968750Y2625145D1*
X1918670D1*
X1893710Y2650143D1*
X1718670Y2725139D2*
X1768750D1*
X1793710Y2700140D1*
Y2650143D1*
X1768750Y2625145D1*
X1793710Y2700140D2*
X1818670Y2725139D1*
X1868750D1*
X1893710Y2700140D1*
Y2650143D1*
X1868750Y2625145D1*
X1818670D1*
X1793710Y2650143D1*
X1593710Y2700140D2*
X1618670Y2725139D1*
X1668750D1*
X1693710Y2700140D1*
Y2650143D1*
X1668750Y2625145D1*
X1618670D1*
X1593710Y2650143D1*
X1718670Y2725139D2*
X1693710Y2700140D1*
Y2650143D2*
X1718670Y2625145D1*
X1768750D2*
X1718670D1*
X1418670Y2725139D2*
X1468750D1*
X1493710Y2700140D1*
Y2650143D1*
X1468750Y2625145D1*
X1493710Y2700140D2*
X1518670Y2725139D1*
X1568750D1*
X1593710Y2700140D1*
Y2650143D1*
X1568750Y2625145D1*
X1518670D1*
X1493710Y2650143D1*
X1293710Y2700140D2*
X1318670Y2725139D1*
X1368750D1*
X1393710Y2700140D1*
Y2650143D1*
X1368750Y2625145D1*
X1318670D1*
X1293710Y2650143D1*
X1418670Y2725139D2*
X1393710Y2700140D1*
Y2650143D2*
X1418670Y2625145D1*
X1468750D2*
X1418670D1*
X1118670Y2725139D2*
X1168750D1*
X1193710Y2700140D1*
Y2650143D1*
X1168750Y2625145D1*
X1193710Y2700140D2*
X1218670Y2725139D1*
X1268750D1*
X1293710Y2700140D1*
Y2650143D1*
X1268750Y2625145D1*
X1218670D1*
X1193710Y2650143D1*
X993710Y2700140D2*
X1018670Y2725139D1*
X1068750D1*
X1093710Y2700140D1*
Y2650143D1*
X1068750Y2625145D1*
X1018670D1*
X993710Y2650143D1*
X1118670Y2725139D2*
X1093710Y2700140D1*
Y2650143D2*
X1118670Y2625145D1*
X1168750D2*
X1118670D1*
X818670Y2725139D2*
X868750D1*
X893710Y2700140D1*
Y2650143D1*
X868750Y2625145D1*
X893710Y2700140D2*
X918670Y2725139D1*
X968750D1*
X993710Y2700140D1*
Y2650143D1*
X968750Y2625145D1*
X918670D1*
X893710Y2650143D1*
X693710Y2700140D2*
X718670Y2725139D1*
X768750D1*
X793710Y2700140D1*
Y2650143D1*
X768750Y2625145D1*
X718670D1*
X693710Y2650143D1*
X818670Y2725139D2*
X793710Y2700140D1*
Y2650143D2*
X818670Y2625145D1*
X868750D2*
X818670D1*
X518670Y2725139D2*
X568750D1*
X593710Y2700140D1*
Y2650143D1*
X568750Y2625145D1*
X593710Y2700140D2*
X618670Y2725139D1*
X668750D1*
X693710Y2700140D1*
Y2650143D1*
X668750Y2625145D1*
X618670D1*
X593710Y2650143D1*
X493710Y2700140D2*
Y2650143D1*
X518670Y2725139D2*
X493710Y2700140D1*
Y2650143D2*
X518670Y2625145D1*
X568750D2*
X518670D1*
X1993710Y2700140D2*
X2018670Y2725139D1*
X2068750D1*
X2093710Y2700140D1*
Y2650143D1*
X2068750Y2625145D1*
X2018670D1*
X1993710Y2650143D1*
X1893710Y1900140D2*
X1918670Y1925139D1*
X1968750D1*
X1993710Y1900140D1*
Y1850143D1*
X1968750Y1825145D1*
X1918670D1*
X1893710Y1850143D1*
X1718670Y1925139D2*
X1768750D1*
X1793710Y1900140D1*
Y1850143D1*
X1768750Y1825145D1*
X1793710Y1900140D2*
X1818670Y1925139D1*
X1868750D1*
X1893710Y1900140D1*
Y1850143D1*
X1868750Y1825145D1*
X1818670D1*
X1793710Y1850143D1*
X1593710Y1900140D2*
X1618670Y1925139D1*
X1668750D1*
X1693710Y1900140D1*
Y1850143D1*
X1668750Y1825145D1*
X1618670D1*
X1593710Y1850143D1*
X1718670Y1925139D2*
X1693710Y1900140D1*
Y1850143D2*
X1718670Y1825145D1*
X1768750D2*
X1718670D1*
X1418670Y1925139D2*
X1468750D1*
X1493710Y1900140D1*
Y1850143D1*
X1468750Y1825145D1*
X1493710Y1900140D2*
X1518670Y1925139D1*
X1568750D1*
X1593710Y1900140D1*
Y1850143D1*
X1568750Y1825145D1*
X1518670D1*
X1493710Y1850143D1*
X1293710Y1900140D2*
X1318670Y1925139D1*
X1368750D1*
X1393710Y1900140D1*
Y1850143D1*
X1368750Y1825145D1*
X1318670D1*
X1293710Y1850143D1*
X1418670Y1925139D2*
X1393710Y1900140D1*
Y1850143D2*
X1418670Y1825145D1*
X1468750D2*
X1418670D1*
X1118670Y1925139D2*
X1168750D1*
X1193710Y1900140D1*
Y1850143D1*
X1168750Y1825145D1*
X1193710Y1900140D2*
X1218670Y1925139D1*
X1268750D1*
X1293710Y1900140D1*
Y1850143D1*
X1268750Y1825145D1*
X1218670D1*
X1193710Y1850143D1*
X993710Y1900140D2*
X1018670Y1925139D1*
X1068750D1*
X1093710Y1900140D1*
Y1850143D1*
X1068750Y1825145D1*
X1018670D1*
X993710Y1850143D1*
X1118670Y1925139D2*
X1093710Y1900140D1*
Y1850143D2*
X1118670Y1825145D1*
X1168750D2*
X1118670D1*
X818670Y1925139D2*
X868750D1*
X893710Y1900140D1*
Y1850143D1*
X868750Y1825145D1*
X893710Y1900140D2*
X918670Y1925139D1*
X968750D1*
X993710Y1900140D1*
Y1850143D1*
X968750Y1825145D1*
X918670D1*
X893710Y1850143D1*
X693710Y1900140D2*
X718670Y1925139D1*
X768750D1*
X793710Y1900140D1*
Y1850143D1*
X768750Y1825145D1*
X718670D1*
X693710Y1850143D1*
X818670Y1925139D2*
X793710Y1900140D1*
Y1850143D2*
X818670Y1825145D1*
X868750D2*
X818670D1*
X518670Y1925139D2*
X568750D1*
X593710Y1900140D1*
Y1850143D1*
X568750Y1825145D1*
X593710Y1900140D2*
X618670Y1925139D1*
X668750D1*
X693710Y1900140D1*
Y1850143D1*
X668750Y1825145D1*
X618670D1*
X593710Y1850143D1*
X493710Y1900140D2*
Y1850143D1*
X518670Y1925139D2*
X493710Y1900140D1*
Y1850143D2*
X518670Y1825145D1*
X568750D2*
X518670D1*
X1993710Y1900140D2*
X2018670Y1925139D1*
X2068750D1*
X2093710Y1900140D1*
Y1850143D1*
X2068750Y1825145D1*
X2018670D1*
X1993710Y1850143D1*
X3155033Y1494034D2*
D39*
G02X3130027Y1469028I-25035J30D01*
G01*
X2707610D1*
G02X2682604Y1494034I10J25016D01*
G01*
Y1916476D1*
G02X2707610Y1941481I24945J60D01*
G01*
X3130027D1*
G02X3155033Y1916476I-19J-25026D01*
G01*
Y1494034D1*
X491765Y2350142D2*
D27*
G02X491765Y2350142I251945J0D01*
G01*
X543716Y2343893D2*
G02X943704Y2343893I199994J3151D01*
G01*
X1041765Y2350142D2*
G02X1041765Y2350142I251945J0D01*
G01*
X1093716Y2343893D2*
G02X1493704Y2343893I199994J3151D01*
G01*
X1691765Y2350142D2*
G02X1691765Y2350142I251945J0D01*
G01*
X1743716Y2343893D2*
G02X2143704Y2343893I199994J3151D01*
G01*
X2241765Y2350142D2*
G02X2241765Y2350142I251945J0D01*
G01*
X2293716Y2343893D2*
G02X2693704Y2343893I199994J3151D01*
G01*
X2891765Y2350142D2*
G02X2891765Y2350142I251945J0D01*
G01*
X2943716Y2343893D2*
G02X3343704Y2343893I199994J3151D01*
G01*
X3441765Y2350142D2*
G02X3441765Y2350142I251945J0D01*
G01*
X3493716Y2343893D2*
G02X3893704Y2343893I199994J3151D01*
G01*
G36*
X3379449Y1617406D2*
X3345475D1*
Y1587350D1*
X3379449D1*
Y1617406D1*
G37*
X3491475Y1857386D2*
D31*
Y1621411D1*
X3233449D1*
Y1857386D1*
X2266690Y1082389D2*
G03X2266690Y942381I10838J-70004D01*
G01*
X2446690D2*
G03X2446690Y1082389I-10838J70004D01*
G01*
X2266690Y942381D2*
G03X2446690Y942381I90000J808242D01*
G01*
Y1082389D2*
G03X2266690Y1082389I-90000J-805807D01*
G01*
X3983710Y2237642D2*
D23*
G02X3983710Y2237642I135000J0D01*
G01*
X4051777D2*
D31*
G02X4051777Y2237642I66933J0D01*
G01*
X3983710Y1437642D2*
D23*
G02X3983710Y1437642I135000J0D01*
G01*
X4051777D2*
D31*
G02X4051777Y1437642I66933J0D01*
G01*
X3974498Y1037384D2*
D23*
G02X3974498Y1037384I20001J0D01*
G01*
Y1234371D2*
G02X3974498Y1234371I20001J0D01*
G01*
X4296504Y939391D2*
Y1332383D1*
X3934496D2*
X3942496D1*
X3934496D2*
Y939391D1*
X4296504D2*
X4202490D1*
Y1002388D1*
Y1072380D2*
Y1199395D1*
Y1269387D2*
Y1332383D1*
Y939391D2*
X3942496D1*
X4202490Y1332383D2*
X4296504D1*
X3942496Y939391D2*
Y1332383D1*
Y939391D2*
X3934496D1*
X3942496Y1332383D2*
X4202490D1*
X4008142Y1872856D2*
D116*
X4005766Y1877609D1*
X4000957Y1882417D1*
X3996204Y1884794D1*
X3986643D1*
X3981834Y1882417D1*
X3977081Y1877609D1*
X3974649Y1872856D1*
X3972273Y1865671D1*
Y1853677D1*
X3974649Y1846547D1*
X3977081Y1841739D1*
X3981834Y1836986D1*
X3986643Y1834554D1*
X3996204D1*
X4000957Y1836986D1*
X4005766Y1841739D1*
X4008142Y1846547D1*
X4023582Y1875177D2*
X4028390Y1877609D1*
X4035575Y1884739D1*
Y1834554D1*
X2474688Y1922680D2*
X2472311Y1927433D1*
X2467503Y1932241D1*
X2462750Y1934618D1*
X2453188D1*
X2448380Y1932241D1*
X2443626Y1927433D1*
X2441194Y1922680D1*
X2438818Y1915495D1*
Y1903501D1*
X2441194Y1896372D1*
X2443626Y1891563D1*
X2448380Y1886810D1*
X2453188Y1884378D1*
X2462750D1*
X2467503Y1886810D1*
X2472311Y1891563D1*
X2474688Y1896372D1*
X2492559Y1922625D2*
Y1925001D1*
X2494936Y1929810D1*
X2497312Y1932186D1*
X2502121Y1934563D1*
X2511682D1*
X2516435Y1932186D1*
X2518812Y1929810D1*
X2521244Y1925001D1*
Y1920248D1*
X2518812Y1915440D1*
X2514059Y1908310D1*
X2490127Y1884378D1*
X2523620D1*
X2321655Y1654957D2*
X2319278Y1659710D1*
X2314470Y1664518D1*
X2309717Y1666895D1*
X2300155D1*
X2295347Y1664518D1*
X2290594Y1659710D1*
X2288162Y1654957D1*
X2285785Y1647772D1*
Y1635778D1*
X2288162Y1628648D1*
X2290594Y1623840D1*
X2295347Y1619087D1*
X2300155Y1616655D1*
X2309717D1*
X2314470Y1619087D1*
X2319278Y1623840D1*
X2321655Y1628648D1*
X2341903Y1666840D2*
X2368156D1*
X2353841Y1647716D1*
X2361026D1*
X2365779Y1645340D1*
X2368156Y1642963D1*
X2370588Y1635778D1*
Y1631025D1*
X2368156Y1623840D1*
X2363403Y1619032D1*
X2356218Y1616655D1*
X2349032D1*
X2341903Y1619032D1*
X2339526Y1621463D1*
X2337094Y1626217D1*
X3619605Y1645789D2*
X3617228Y1650542D1*
X3612419Y1655350D1*
X3607666Y1657727D1*
X3598105D1*
X3593296Y1655350D1*
X3588543Y1650542D1*
X3586111Y1645789D1*
X3583735Y1638604D1*
Y1626610D1*
X3586111Y1619481D1*
X3588543Y1614672D1*
X3593296Y1609919D1*
X3598105Y1607487D1*
X3607666D1*
X3612419Y1609919D1*
X3617228Y1614672D1*
X3619605Y1619481D1*
X3658975Y1607487D2*
Y1657672D1*
X3635044Y1624234D1*
X3670914D1*
X3662807Y1383033D2*
X3658054Y1380656D1*
X3653245Y1375848D1*
X3650869Y1371095D1*
Y1361533D1*
X3653245Y1356725D1*
X3658054Y1351972D1*
X3662807Y1349540D1*
X3669992Y1347163D1*
X3681986D1*
X3689115Y1349540D1*
X3693924Y1351972D1*
X3698677Y1356725D1*
X3701109Y1361533D1*
Y1371095D1*
X3698677Y1375848D1*
X3693924Y1380656D1*
X3689115Y1383033D1*
X3650924Y1427157D2*
Y1403281D1*
X3672424Y1400904D1*
X3670047Y1403281D1*
X3667616Y1410466D1*
Y1417596D1*
X3670047Y1424781D1*
X3674801Y1429589D1*
X3681986Y1431966D1*
X3686739D1*
X3693924Y1429589D1*
X3698732Y1424781D1*
X3701109Y1417595D1*
Y1410466D1*
X3698732Y1403281D1*
X3696300Y1400904D1*
X3691547Y1398472D1*
X3762797Y1371750D2*
X3758043Y1369374D1*
X3753235Y1364565D1*
X3750858Y1359812D1*
Y1350250D1*
X3753235Y1345442D1*
X3758043Y1340689D1*
X3762797Y1338257D1*
X3769982Y1335880D1*
X3781975D1*
X3789105Y1338257D1*
X3793913Y1340689D1*
X3798666Y1345442D1*
X3801098Y1350250D1*
Y1359812D1*
X3798666Y1364565D1*
X3793913Y1369374D1*
X3789105Y1371750D1*
X3758043Y1415874D2*
X3753290Y1413498D1*
X3750914Y1406313D1*
Y1401560D1*
X3753290Y1394375D1*
X3760475Y1389566D1*
X3772413Y1387190D1*
X3784352D1*
X3793913Y1389566D1*
X3798722Y1394375D1*
X3801098Y1401560D1*
Y1403936D1*
X3798722Y1411066D1*
X3793913Y1415874D1*
X3786728Y1418251D1*
X3784352D1*
X3777167Y1415874D1*
X3772413Y1411066D1*
X3770037Y1403936D1*
Y1401560D1*
X3772413Y1394375D1*
X3777167Y1389566D1*
X3784352Y1387190D1*
X2621126Y1081125D2*
X2618750Y1085878D1*
X2613941Y1090686D1*
X2609188Y1093063D1*
X2599626D1*
X2594818Y1090686D1*
X2590065Y1085878D1*
X2587633Y1081125D1*
X2585256Y1073940D1*
Y1061946D1*
X2587633Y1054816D1*
X2590065Y1050008D1*
X2594818Y1045255D1*
X2599626Y1042823D1*
X2609188D1*
X2613941Y1045255D1*
X2618750Y1050008D1*
X2621126Y1054816D1*
X2648504Y1093008D2*
X2641374Y1090631D1*
X2638942Y1085878D1*
Y1081069D1*
X2641374Y1076316D1*
X2646127Y1073884D1*
X2655689Y1071508D1*
X2662874Y1069131D1*
X2667627Y1064323D1*
X2670004Y1059570D1*
Y1052385D1*
X2667627Y1047631D1*
X2665250Y1045200D1*
X2658065Y1042823D1*
X2648504D1*
X2641374Y1045200D1*
X2638942Y1047631D1*
X2636565Y1052385D1*
Y1059570D1*
X2638942Y1064323D1*
X2643751Y1069131D1*
X2650880Y1071508D1*
X2660442Y1073884D1*
X2665250Y1076316D1*
X2667627Y1081069D1*
Y1085878D1*
X2665250Y1090631D1*
X2658065Y1093008D1*
X2648504D1*
X3042499Y1526499D2*
Y1476259D1*
X3059246D1*
X3066431Y1478691D1*
X3071239Y1483444D1*
X3073616Y1488252D1*
X3075992Y1495382D1*
Y1507375D1*
X3073616Y1514560D1*
X3071239Y1519314D1*
X3066431Y1524122D1*
X3059246Y1526499D1*
X3042499D1*
X3091431Y1516882D2*
X3096240Y1519314D1*
X3103425Y1526443D1*
Y1476259D1*
X3715330Y1335265D2*
Y1285025D1*
X3732077D1*
X3739262Y1287457D1*
X3744071Y1292210D1*
X3746447Y1297019D1*
X3748824Y1304148D1*
Y1316142D1*
X3746447Y1323327D1*
X3744071Y1328080D1*
X3739262Y1332888D1*
X3732077Y1335265D1*
X3715330D1*
X3766695Y1323272D2*
Y1325648D1*
X3769071Y1330457D1*
X3771448Y1332833D1*
X3776256Y1335210D1*
X3785818D1*
X3790571Y1332833D1*
X3792948Y1330457D1*
X3795380Y1325648D1*
Y1320895D1*
X3792948Y1316087D1*
X3788195Y1308957D1*
X3764263Y1285025D1*
X3797756D1*
X735595Y1854613D2*
Y1804373D1*
X786904Y1842675D2*
X784528Y1847428D1*
X779719Y1852236D1*
X774966Y1854613D1*
X765404D1*
X760596Y1852236D1*
X755843Y1847428D1*
X753411Y1842675D1*
X751034Y1835490D1*
Y1823496D1*
X753411Y1816366D1*
X755843Y1811558D1*
X760596Y1806805D1*
X765404Y1804373D1*
X774966D1*
X779719Y1806805D1*
X784528Y1811558D1*
X786904Y1816366D1*
X802343Y1844996D2*
X807152Y1847428D1*
X814337Y1854558D1*
Y1804373D1*
X2249838Y1411135D2*
Y1360895D1*
X2301148Y1399197D2*
X2298771Y1403950D1*
X2293963Y1408759D1*
X2289209Y1411135D1*
X2279648D1*
X2274839Y1408759D1*
X2270086Y1403950D1*
X2267654Y1399197D1*
X2265278Y1392012D1*
Y1380018D1*
X2267654Y1372889D1*
X2270086Y1368080D1*
X2274839Y1363327D1*
X2279648Y1360895D1*
X2289209D1*
X2293963Y1363327D1*
X2298771Y1368080D1*
X2301148Y1372889D1*
X2319019Y1399142D2*
Y1401518D1*
X2321395Y1406327D1*
X2323772Y1408703D1*
X2328580Y1411080D1*
X2338142D1*
X2342895Y1408703D1*
X2345272Y1406327D1*
X2347704Y1401518D1*
Y1396765D1*
X2345272Y1391957D1*
X2340519Y1384827D1*
X2316587Y1360895D1*
X2350080D1*
X3222303Y1361853D2*
Y1311613D1*
X3273612Y1349915D2*
X3271236Y1354668D1*
X3266427Y1359476D1*
X3261674Y1361853D1*
X3252112D1*
X3247304Y1359476D1*
X3242551Y1354668D1*
X3240119Y1349915D1*
X3237742Y1342730D1*
Y1330736D1*
X3240119Y1323606D1*
X3242551Y1318798D1*
X3247304Y1314045D1*
X3252112Y1311613D1*
X3261674D1*
X3266427Y1314045D1*
X3271236Y1318798D1*
X3273612Y1323606D1*
X3293860Y1361798D2*
X3320113D1*
X3305798Y1342674D1*
X3312983D1*
X3317736Y1340298D1*
X3320113Y1337921D1*
X3322545Y1330736D1*
Y1325983D1*
X3320113Y1318798D1*
X3315360Y1313990D1*
X3308175Y1311613D1*
X3300990D1*
X3293860Y1313990D1*
X3291483Y1316421D1*
X3289051Y1321175D1*
X2582277Y1423362D2*
Y1373122D1*
X2631210Y1416177D2*
X2626457Y1420986D1*
X2619272Y1423362D1*
X2609710D1*
X2602525Y1420986D1*
X2597717Y1416177D1*
Y1411424D1*
X2600148Y1406616D1*
X2602525Y1404239D1*
X2607278Y1401862D1*
X2621648Y1397054D1*
X2626457Y1394677D1*
X2628833Y1392245D1*
X2631210Y1387492D1*
Y1380307D1*
X2626457Y1375554D1*
X2619272Y1373122D1*
X2609710D1*
X2602525Y1375554D1*
X2597717Y1380307D1*
X2646649Y1397054D2*
X2668204D1*
X2675334Y1399430D1*
X2677766Y1401862D1*
X2680143Y1406616D1*
Y1413801D1*
X2677766Y1418554D1*
X2675334Y1420986D1*
X2668204Y1423362D1*
X2646649D1*
Y1373122D1*
X1267493Y2807913D2*
Y2769667D1*
X1265117Y2762482D1*
X1262685Y2760105D1*
X1257932Y2757673D1*
X1253123D1*
X1248370Y2760105D1*
X1245993Y2762482D1*
X1243561Y2769667D1*
Y2774420D1*
X1282932Y2781605D2*
X1304488D1*
X1311617Y2783982D1*
X1314049Y2786414D1*
X1316426Y2791167D1*
Y2798352D1*
X1314049Y2803105D1*
X1311617Y2805537D1*
X1304488Y2807913D1*
X1282932D1*
Y2757673D1*
X1331865Y2798296D2*
X1336673Y2800728D1*
X1343858Y2807858D1*
Y2757673D1*
X1256743Y2007913D2*
Y1969667D1*
X1254367Y1962482D1*
X1251935Y1960105D1*
X1247182Y1957673D1*
X1242373D1*
X1237620Y1960105D1*
X1235243Y1962482D1*
X1232812Y1969667D1*
Y1974420D1*
X1272182Y1981605D2*
X1293738D1*
X1300867Y1983982D1*
X1303299Y1986414D1*
X1305676Y1991167D1*
Y1998352D1*
X1303299Y2003105D1*
X1300867Y2005537D1*
X1293738Y2007913D1*
X1272182D1*
Y1957673D1*
X1323547Y1995920D2*
Y1998296D1*
X1325924Y2003105D1*
X1328300Y2005482D1*
X1333109Y2007858D1*
X1342670D1*
X1347423Y2005482D1*
X1349800Y2003105D1*
X1352232Y1998296D1*
Y1993543D1*
X1349800Y1988735D1*
X1345047Y1981605D1*
X1321115Y1957673D1*
X1354608D1*
X2770044Y1464762D2*
Y1414522D1*
X2798728D1*
X2814168Y1455145D2*
X2818976Y1457577D1*
X2826161Y1464707D1*
Y1414522D1*
X746740Y2675310D2*
Y2625070D1*
X713247Y2675310D1*
Y2625070D1*
X762180Y2665693D2*
X766988Y2668125D1*
X774173Y2675254D1*
Y2625070D1*
X1285990Y2675310D2*
Y2625070D1*
X1252497Y2675310D1*
Y2625070D1*
X1303861Y2663316D2*
Y2665693D1*
X1306238Y2670501D1*
X1308615Y2672878D1*
X1313423Y2675254D1*
X1322985D1*
X1327738Y2672878D1*
X1330114Y2670501D1*
X1332546Y2665693D1*
Y2660940D1*
X1330114Y2656131D1*
X1325361Y2649001D1*
X1301430Y2625070D1*
X1334923D1*
X1935990Y2675310D2*
Y2625070D1*
X1902497Y2675310D1*
Y2625070D1*
X1956238Y2675254D2*
X1982491D1*
X1968176Y2656131D1*
X1975361D1*
X1980114Y2653755D1*
X1982491Y2651378D1*
X1984923Y2644193D1*
Y2639440D1*
X1982491Y2632255D1*
X1977738Y2627446D1*
X1970553Y2625070D1*
X1963368D1*
X1956238Y2627446D1*
X1953861Y2629878D1*
X1951430Y2634631D1*
X2484802Y2675310D2*
Y2625070D1*
X2451309Y2675310D1*
Y2625070D1*
X2524173D2*
Y2675254D1*
X2500241Y2641816D1*
X2536111D1*
X3135990Y2675310D2*
Y2625070D1*
X3102497Y2675310D1*
Y2625070D1*
X3180114Y2675254D2*
X3156238D1*
X3153861Y2653755D1*
X3156238Y2656131D1*
X3163423Y2658563D1*
X3170553D1*
X3177738Y2656131D1*
X3182546Y2651378D1*
X3184923Y2644193D1*
Y2639440D1*
X3182546Y2632255D1*
X3177738Y2627446D1*
X3170553Y2625070D1*
X3163423D1*
X3156238Y2627446D1*
X3153861Y2629878D1*
X3151430Y2634631D1*
X3687206Y2675310D2*
Y2625070D1*
X3653713Y2675310D1*
Y2625070D1*
X3731330Y2668125D2*
X3728954Y2672878D1*
X3721769Y2675254D1*
X3717016D1*
X3709831Y2672878D1*
X3705022Y2665693D1*
X3702646Y2653755D1*
Y2641816D1*
X3705022Y2632255D1*
X3709831Y2627446D1*
X3717016Y2625070D1*
X3719392D1*
X3726522Y2627446D1*
X3731330Y2632255D1*
X3733707Y2639440D1*
Y2641816D1*
X3731330Y2649001D1*
X3726522Y2653755D1*
X3719392Y2656131D1*
X3717016D1*
X3709831Y2653755D1*
X3705022Y2649001D1*
X3702646Y2641816D1*
X2325736Y1869395D2*
X2347236D1*
X2354421Y1871827D1*
X2356853Y1874203D1*
X2359230Y1878957D1*
Y1883765D1*
X2356853Y1888518D1*
X2354421Y1890950D1*
X2347236Y1893327D1*
X2325736D1*
Y1843087D1*
X2342483Y1869395D2*
X2359230Y1843087D1*
X2374669Y1883710D2*
X2379477Y1886142D1*
X2386663Y1893271D1*
Y1843087D1*
X2321236Y1788148D2*
X2342736D1*
X2349921Y1790580D1*
X2352353Y1792957D1*
X2354729Y1797710D1*
Y1802518D1*
X2352353Y1807272D1*
X2349921Y1809703D1*
X2342736Y1812080D1*
X2321236D1*
Y1761840D1*
X2337983Y1788148D2*
X2354729Y1761840D1*
X2372600Y1800087D2*
Y1802463D1*
X2374977Y1807272D1*
X2377353Y1809648D1*
X2382162Y1812025D1*
X2391724D1*
X2396477Y1809648D1*
X2398853Y1807272D1*
X2401285Y1802463D1*
Y1797710D1*
X2398853Y1792902D1*
X2394100Y1785772D1*
X2370168Y1761840D1*
X2403662D1*
X1399463Y1427673D2*
Y1449173D1*
X1397031Y1456358D1*
X1394655Y1458790D1*
X1389902Y1461166D1*
X1385093D1*
X1380340Y1458790D1*
X1377908Y1456358D1*
X1375532Y1449173D1*
Y1427673D1*
X1425772D1*
X1399463Y1444420D2*
X1425772Y1461166D1*
X1375587Y1481414D2*
Y1507667D1*
X1394710Y1493352D1*
Y1500537D1*
X1397087Y1505290D1*
X1399463Y1507667D1*
X1406648Y1510099D1*
X1411401D1*
X1418587Y1507667D1*
X1423395Y1502914D1*
X1425772Y1495729D1*
Y1488544D1*
X1423395Y1481414D1*
X1420963Y1479037D1*
X1416210Y1476605D1*
X1524465Y1432738D2*
Y1454238D1*
X1522033Y1461423D1*
X1519656Y1463855D1*
X1514903Y1466231D1*
X1510095D1*
X1505341Y1463855D1*
X1502909Y1461423D1*
X1500533Y1454238D1*
Y1432738D1*
X1550773D1*
X1524465Y1449485D2*
X1550773Y1466231D1*
Y1505602D2*
X1500588D1*
X1534026Y1481670D1*
Y1517540D1*
X1643215Y1427677D2*
Y1449177D1*
X1640783Y1456362D1*
X1638407Y1458794D1*
X1633654Y1461170D1*
X1628845D1*
X1624092Y1458794D1*
X1621660Y1456362D1*
X1619284Y1449177D1*
X1619283Y1427677D1*
X1669523D1*
X1643215Y1444424D2*
X1669524Y1461170D1*
X1619339Y1505294D2*
Y1481418D1*
X1640839Y1479041D1*
X1638462Y1481418D1*
X1636030Y1488603D1*
Y1495733D1*
X1638462Y1502918D1*
X1643215Y1507726D1*
X1650400Y1510103D1*
X1655153D1*
X1662338Y1507726D1*
X1667147Y1502918D1*
X1669524Y1495733D1*
Y1488603D1*
X1667147Y1481418D1*
X1664715Y1479041D1*
X1659962Y1476609D1*
X1761965Y1428797D2*
Y1450297D1*
X1759533Y1457482D1*
X1757156Y1459914D1*
X1752403Y1462290D1*
X1747595D1*
X1742841Y1459914D1*
X1740409Y1457482D1*
X1738033Y1450297D1*
Y1428797D1*
X1788273D1*
X1761965Y1445544D2*
X1788273Y1462290D1*
X1745218Y1506414D2*
X1740465Y1504038D1*
X1738088Y1496853D1*
Y1492100D1*
X1740465Y1484915D1*
X1747650Y1480106D1*
X1759588Y1477730D1*
X1771526D1*
X1781088Y1480106D1*
X1785896Y1484915D1*
X1788273Y1492100D1*
Y1494476D1*
X1785896Y1501606D1*
X1781088Y1506414D1*
X1773903Y1508791D1*
X1771526D1*
X1764341Y1506414D1*
X1759588Y1501606D1*
X1757211Y1494476D1*
Y1492100D1*
X1759588Y1484915D1*
X1764341Y1480106D1*
X1771526Y1477730D1*
X1143215Y1421425D2*
Y1442925D1*
X1140783Y1450110D1*
X1138407Y1452542D1*
X1133654Y1454918D1*
X1128845D1*
X1124092Y1452542D1*
X1121660Y1450110D1*
X1119284Y1442925D1*
X1119283Y1421425D1*
X1169523D1*
X1143215Y1438172D2*
X1169524Y1454918D1*
Y1479919D2*
X1119339Y1503851D1*
Y1470358D1*
X1268211Y1421457D2*
Y1442956D1*
X1265779Y1450141D1*
X1263403Y1452573D1*
X1258650Y1454950D1*
X1253841D1*
X1249088Y1452573D1*
X1246656Y1450141D1*
X1244280Y1442956D1*
Y1421457D1*
X1294520D1*
X1268211Y1438203D2*
X1294520Y1454950D1*
X1244335Y1482327D2*
X1246711Y1475198D1*
X1251465Y1472766D1*
X1256273D1*
X1261026Y1475198D1*
X1263458Y1479951D1*
X1265835Y1489512D1*
X1268211Y1496697D1*
X1273020Y1501450D1*
X1277773Y1503827D1*
X1284958D1*
X1289711Y1501450D1*
X1292143Y1499074D1*
X1294520Y1491889D1*
Y1482327D1*
X1292143Y1475197D1*
X1289711Y1472766D1*
X1284958Y1470389D1*
X1277773D1*
X1273020Y1472766D1*
X1268211Y1477574D1*
X1265835Y1484704D1*
X1263458Y1494265D1*
X1261026Y1499074D1*
X1256273Y1501451D1*
X1251465D1*
X1246711Y1499074D1*
X1244335Y1491889D1*
Y1482327D1*
X1978782Y1500635D2*
X2000282D1*
X2007467Y1503067D1*
X2009899Y1505444D1*
X2012276Y1510197D1*
Y1515005D1*
X2009899Y1519758D1*
X2007467Y1522190D1*
X2000282Y1524567D1*
X1978782D1*
Y1474327D1*
X1995529Y1500635D2*
X2012276Y1474327D1*
X2058832Y1507820D2*
X2056400Y1500635D1*
X2051647Y1495827D1*
X2044462Y1493450D1*
X2042085D1*
X2034900Y1495827D1*
X2030147Y1500635D1*
X2027715Y1507820D1*
Y1510197D1*
X2030147Y1517382D1*
X2034900Y1522135D1*
X2042085Y1524512D1*
X2044462D1*
X2051647Y1522135D1*
X2056400Y1517382D1*
X2058832Y1507820D1*
Y1495827D1*
X2056400Y1483889D1*
X2051647Y1476703D1*
X2044462Y1474327D1*
X2039708D1*
X2032523Y1476703D1*
X2030147Y1481512D1*
X1920128Y1369387D2*
X1941628D1*
X1948813Y1371819D1*
X1951245Y1374196D1*
X1953622Y1378949D1*
Y1383757D1*
X1951245Y1388510D1*
X1948813Y1390942D1*
X1941628Y1393319D1*
X1920128D1*
Y1343079D1*
X1936875Y1369387D2*
X1953622Y1343079D1*
X1969061Y1383702D2*
X1973869Y1386134D1*
X1981054Y1393264D1*
Y1343079D1*
X2010864Y1393264D2*
X2003679Y1390887D1*
X1998870Y1383702D1*
X1996494Y1371764D1*
Y1364579D1*
X1998870Y1352641D1*
X2003679Y1345455D1*
X2010864Y1343079D1*
X2015617D1*
X2022802Y1345455D1*
X2027555Y1352641D1*
X2029987Y1364579D1*
Y1371764D1*
X2027555Y1383702D1*
X2022802Y1390887D1*
X2015617Y1393264D1*
X2010864D1*
X2027555Y1383702D2*
X1998870Y1352641D1*
X1874466Y1143561D2*
Y1165061D1*
X1872034Y1172246D1*
X1869657Y1174678D1*
X1864904Y1177054D1*
X1860096D1*
X1855343Y1174678D1*
X1852911Y1172246D1*
X1850534Y1165061D1*
Y1143561D1*
X1900774D1*
X1874466Y1160308D2*
X1900774Y1177054D1*
X1860151Y1192493D2*
X1857719Y1197302D1*
X1850589Y1204487D1*
X1900774D1*
X1860151Y1219926D2*
X1857719Y1224735D1*
X1850589Y1231920D1*
X1900774D1*
X3498730Y1902684D2*
Y1852444D1*
X3481983Y1902684D2*
X3515476D1*
X3530916Y1893067D2*
X3535724Y1895499D1*
X3542909Y1902628D1*
Y1852444D1*
X1144240Y1719236D2*
Y1668996D1*
X1127493Y1719236D2*
X1160986D1*
X1178858Y1707243D2*
Y1709619D1*
X1181234Y1714428D1*
X1183611Y1716804D1*
X1188419Y1719181D1*
X1197981D1*
X1202734Y1716804D1*
X1205111Y1714428D1*
X1207542Y1709619D1*
Y1704866D1*
X1205111Y1700058D1*
X1200357Y1692928D1*
X1176426Y1668996D1*
X1209919D1*
X1269240Y1719236D2*
Y1668996D1*
X1252493Y1719236D2*
X1285986D1*
X1306234Y1719181D2*
X1332487D1*
X1318172Y1700058D1*
X1325357D1*
X1330111Y1697681D1*
X1332487Y1695304D1*
X1334919Y1688119D1*
Y1683366D1*
X1332487Y1676181D1*
X1327734Y1671373D1*
X1320549Y1668996D1*
X1313364D1*
X1306234Y1671373D1*
X1303858Y1673805D1*
X1301426Y1678558D1*
X1393059Y1719232D2*
Y1668992D1*
X1376313Y1719232D2*
X1409806D1*
X1449177Y1668992D2*
Y1719177D1*
X1425245Y1685739D1*
X1461115D1*
X1525485Y1719236D2*
Y1668996D1*
X1508738Y1719236D2*
X1542232D1*
X1586356Y1719181D2*
X1562480D1*
X1560103Y1697681D1*
X1562480Y1700058D1*
X1569665Y1702490D1*
X1576794D1*
X1583979Y1700058D1*
X1588788Y1695304D1*
X1591164Y1688119D1*
Y1683366D1*
X1588788Y1676181D1*
X1583979Y1671373D1*
X1576794Y1668996D1*
X1569665D1*
X1562480Y1671373D1*
X1560103Y1673805D1*
X1557671Y1678558D1*
X1651705Y1719240D2*
Y1669000D1*
X1634958Y1719240D2*
X1668452D1*
X1712576Y1712055D2*
X1710199Y1716808D1*
X1703014Y1719185D1*
X1698261D1*
X1691076Y1716808D1*
X1686268Y1709623D1*
X1683891Y1697685D1*
Y1685747D1*
X1686268Y1676185D1*
X1691076Y1671377D1*
X1698261Y1669000D1*
X1700638D1*
X1707767Y1671377D1*
X1712576Y1676185D1*
X1714952Y1683370D1*
Y1685747D1*
X1712576Y1692932D1*
X1707767Y1697685D1*
X1700638Y1700062D1*
X1698261D1*
X1691076Y1697685D1*
X1686268Y1692932D1*
X1683891Y1685747D1*
X1775493Y1719236D2*
Y1668996D1*
X1758746Y1719236D2*
X1792240D1*
X1817241Y1668996D2*
X1841172Y1719181D1*
X1807679D1*
X1144267Y1394234D2*
Y1343994D1*
X1127521Y1394234D2*
X1161014D1*
X1188392Y1394178D2*
X1181262Y1391802D1*
X1178830Y1387049D1*
Y1382240D1*
X1181262Y1377487D1*
X1186015Y1375055D1*
X1195577Y1372678D1*
X1202762Y1370302D1*
X1207515Y1365493D1*
X1209891Y1360740D1*
Y1353555D1*
X1207515Y1348802D1*
X1205138Y1346370D1*
X1197953Y1343994D1*
X1188392D1*
X1181262Y1346370D1*
X1178830Y1348802D1*
X1176453Y1353555D1*
Y1360740D1*
X1178830Y1365493D1*
X1183638Y1370302D1*
X1190768Y1372678D1*
X1200330Y1375055D1*
X1205138Y1377487D1*
X1207515Y1382240D1*
Y1387049D1*
X1205138Y1391802D1*
X1197953Y1394178D1*
X1188392D1*
X1276673Y1387984D2*
Y1337744D1*
X1259927Y1387984D2*
X1293420D1*
X1339976Y1371238D2*
X1337544Y1364053D1*
X1332791Y1359244D1*
X1325606Y1356867D1*
X1323229D1*
X1316044Y1359244D1*
X1311291Y1364053D1*
X1308859Y1371238D1*
Y1373614D1*
X1311291Y1380799D1*
X1316044Y1385552D1*
X1323229Y1387929D1*
X1325606D1*
X1332791Y1385552D1*
X1337544Y1380799D1*
X1339976Y1371238D1*
Y1359244D1*
X1337544Y1347306D1*
X1332791Y1340121D1*
X1325606Y1337744D1*
X1320853D1*
X1313668Y1340121D1*
X1311291Y1344929D1*
X1400885Y1311951D2*
X1451125D1*
X1400885Y1295205D2*
Y1328698D1*
X1410501Y1344137D2*
X1408070Y1348946D1*
X1400940Y1356131D1*
X1451125D1*
X1400940Y1385940D2*
X1403316Y1378755D1*
X1410501Y1373946D1*
X1422440Y1371570D1*
X1429625D1*
X1441563Y1373946D1*
X1448748Y1378755D1*
X1451125Y1385940D1*
Y1390693D1*
X1448748Y1397878D1*
X1441563Y1402631D1*
X1429625Y1405063D1*
X1422440D1*
X1410501Y1402631D1*
X1403316Y1397878D1*
X1400940Y1390693D1*
Y1385940D1*
X1410501Y1402631D2*
X1441563Y1373946D1*
X1519631Y1285209D2*
X1569871D1*
X1519631Y1268462D2*
Y1301956D1*
X1529248Y1317395D2*
X1526816Y1322203D1*
X1519687Y1329388D1*
X1569871D1*
X1529248Y1344828D2*
X1526816Y1349636D1*
X1519687Y1356821D1*
X1569871D1*
X1650889Y1274459D2*
X1701129D1*
X1650888Y1257713D2*
X1650889Y1291206D1*
X1660505Y1306645D2*
X1658074Y1311454D1*
X1650944Y1318639D1*
X1701129Y1318638D1*
X1662882Y1336510D2*
X1660505D1*
X1655697Y1338886D1*
X1653320Y1341263D1*
X1650944Y1346071D1*
Y1355633D1*
X1653320Y1360386D1*
X1655697Y1362763D1*
X1660505Y1365195D1*
X1665259Y1365194D1*
X1670067Y1362763D1*
X1677197Y1358009D1*
X1701129Y1334078D1*
Y1367571D1*
X1769639Y1274459D2*
X1819879D1*
X1769639Y1257713D2*
Y1291206D1*
X1779256Y1306645D2*
X1776824Y1311454D1*
X1769694Y1318639D1*
X1819879Y1318638D1*
X1769694Y1338886D2*
Y1365139D1*
X1788818Y1350824D1*
Y1358009D1*
X1791194Y1362763D1*
X1793571Y1365139D1*
X1800756Y1367571D1*
X1805509D1*
X1812694Y1365139D1*
X1817503Y1360386D1*
X1819879Y1353201D1*
Y1346016D1*
X1817503Y1338886D1*
X1815071Y1336510D1*
X1810318Y1334078D1*
X2326227Y1160622D2*
Y1124752D1*
X2328604Y1117567D1*
X2333412Y1112814D1*
X2340597Y1110382D1*
X2345351D1*
X2352536Y1112814D1*
X2357344Y1117567D1*
X2359721Y1124752D1*
Y1160622D1*
X2375160Y1151005D2*
X2379968Y1153437D1*
X2387153Y1160567D1*
Y1110382D1*
X4063808Y2445865D2*
Y2409995D1*
X4066185Y2402810D1*
X4070993Y2398057D1*
X4078178Y2395625D1*
X4082932D1*
X4090117Y2398057D1*
X4094925Y2402810D1*
X4097302Y2409995D1*
Y2445865D1*
X4124679Y2455399D2*
Y2386036D1*
X4134241Y2455399D2*
Y2386036D1*
X4146179Y2438652D2*
X4141426Y2443405D1*
X4134241Y2445782D1*
X4124679D1*
X4117549Y2443405D1*
X4112741Y2438652D1*
Y2433844D1*
X4115117Y2429091D1*
X4117549Y2426659D1*
X4122302Y2424282D1*
X4136617Y2419529D1*
X4141426Y2417097D1*
X4143802Y2414720D1*
X4146179Y2409967D1*
Y2402782D1*
X4141426Y2397974D1*
X4134241Y2395597D1*
X4124679D1*
X4117549Y2397974D1*
X4112741Y2402782D1*
X4161618Y2436248D2*
X4166427Y2438680D1*
X4173612Y2445810D1*
Y2395625D1*
X4053058Y1645865D2*
Y1609995D1*
X4055435Y1602810D1*
X4060243Y1598057D1*
X4067428Y1595625D1*
X4072182D1*
X4079367Y1598057D1*
X4084175Y1602810D1*
X4086552Y1609995D1*
Y1645865D1*
X4113929Y1655399D2*
Y1586036D1*
X4123491Y1655399D2*
Y1586036D1*
X4135429Y1638652D2*
X4130676Y1643405D1*
X4123491Y1645782D1*
X4113929D1*
X4106799Y1643405D1*
X4101991Y1638652D1*
Y1633844D1*
X4104368Y1629091D1*
X4106799Y1626659D1*
X4111553Y1624282D1*
X4125867Y1619529D1*
X4130676Y1617097D1*
X4133052Y1614720D1*
X4135429Y1609967D1*
Y1602782D1*
X4130676Y1597974D1*
X4123491Y1595597D1*
X4113929D1*
X4106799Y1597974D1*
X4101991Y1602782D1*
X4153300Y1633871D2*
Y1636248D1*
X4155677Y1641056D1*
X4158053Y1643433D1*
X4162862Y1645810D1*
X4172423D1*
X4177177Y1643433D1*
X4179553Y1641056D1*
X4181985Y1636248D1*
Y1631495D1*
X4179553Y1626686D1*
X4174800Y1619557D1*
X4150868Y1595625D1*
X4184362D1*
X4085037Y1405606D2*
X4118530Y1355366D1*
Y1405606D2*
X4085037Y1355366D1*
X4133970Y1395989D2*
X4138778Y1398421D1*
X4145963Y1405551D1*
Y1355366D1*
M02*
